<svg width="169" height="300" viewBox="0 0 169 300" fill="none" xmlns="http://www.w3.org/2000/svg">
<path d="M22.3039 212.863L25.9054 212.863L25.9054 259.436L22.3039 259.436L22.3039 212.863ZM22.3039 293.188L25.9054 293.188L25.9054 256.244L22.3039 256.244L22.3039 293.137L22.3039 293.188ZM24.13 299.776C26.8184 299.776 28.9489 297.597 28.9489 294.962C28.9489 292.326 26.7677 290.147 24.13 290.147C21.4923 290.147 19.3112 292.326 19.3112 294.962C19.3112 297.597 21.4923 299.776 24.13 299.776ZM4.14446 287.715L7.28939 289.539L25.7532 257.561L22.6083 255.737L4.14446 287.715ZM2.41981 294.303C4.70243 295.621 7.69519 294.86 9.01403 292.529C10.3329 290.198 9.57201 287.259 7.23867 285.941C4.90533 284.623 1.9633 285.384 0.644453 287.715C-0.674391 290.046 0.0864726 292.985 2.41981 294.303ZM22.5068 257.561L40.9706 289.539L44.1156 287.715L25.6518 255.737L22.5068 257.561ZM47.6156 287.715C46.2967 285.434 43.3547 284.623 41.0214 285.941C38.688 287.259 37.9272 290.198 39.246 292.529C40.5649 294.86 43.5069 295.621 45.8402 294.303C48.1736 292.985 48.9344 290.046 47.6156 287.715ZM22.3039 87.6382L25.9054 87.6382L25.9054 41.0651L22.3039 41.0651L22.3039 87.6382ZM22.3039 44.2578L25.9054 44.2578L25.9054 7.31357L22.304 7.31357L22.3039 44.2578ZM24.13 0.776105C21.4416 0.776104 19.3112 2.95526 19.3112 5.59051C19.3112 8.22577 21.4924 10.4049 24.13 10.4049C26.7677 10.4049 28.9489 8.22577 28.9489 5.59052C28.9489 2.95526 26.7677 0.776105 24.13 0.776105ZM22.5068 42.9909L25.6518 44.8153L44.1156 12.8375L40.9707 11.0131L22.5068 42.9909ZM45.8402 6.24934C43.5576 4.93171 40.5649 5.69187 39.246 8.02306C37.9272 10.3542 38.6881 13.2936 41.0214 14.6112C43.3547 15.9288 46.2968 15.1687 47.6156 12.8375C48.9345 10.5063 48.1736 7.56696 45.8402 6.24934ZM4.14448 12.8375L22.6083 44.8153L25.7532 42.9909L7.28941 11.0131L4.14448 12.8375ZM0.644477 12.8375C1.96332 15.118 4.90536 15.9288 7.2387 14.6112C9.57204 13.2936 10.3329 10.3542 9.01406 8.02305C7.69521 5.69187 4.75318 4.93171 2.41984 6.24933C0.0864975 7.56696 -0.674367 10.5063 0.644477 12.8375ZM44.4199 207.187L62.2751 250.213L65.6229 248.845L47.7678 205.819L44.4199 207.187ZM61.0577 247.274L75.2099 281.38L78.5577 280.012L64.4055 245.905L61.0577 247.274ZM79.3693 286.752C81.8548 285.738 83.0215 282.9 81.9563 280.468C80.8911 278.035 78.1012 276.819 75.6664 277.883C73.2316 278.947 72.0142 281.735 73.0794 284.167C74.1447 286.6 76.9345 287.816 79.3693 286.752ZM56.2895 283.255L59.891 283.711L64.7099 247.122L61.1084 246.666L56.2895 283.255ZM57.2026 289.995C59.8403 290.35 62.2751 288.475 62.6301 285.84C62.9852 283.204 61.1084 280.772 58.4707 280.417C55.833 280.062 53.3982 281.937 53.0431 284.573C52.6881 287.208 54.5649 289.641 57.2026 289.995ZM61.7171 248.338L91.036 270.839L93.2172 267.95L63.8983 245.449L61.7171 248.338ZM96.4636 266.633C94.3331 265.011 91.3404 265.416 89.7172 267.545C88.094 269.673 88.4998 272.663 90.6302 274.285C92.7607 275.907 95.7534 275.501 97.3766 273.373C98.9998 271.244 98.594 268.254 96.4636 266.633ZM64.507 193.048L97.4781 225.989L100.014 223.455L67.0432 190.514L64.507 193.048ZM95.1954 223.708L121.319 249.808L123.855 247.274L97.7317 221.175L95.1954 223.708ZM127.254 253.203C129.13 251.328 129.13 248.287 127.254 246.362C125.377 244.436 122.333 244.486 120.406 246.362C118.478 248.237 118.529 251.277 120.406 253.203C122.282 255.129 125.326 255.078 127.254 253.203ZM94.9925 223.151L104.58 258.828L108.08 257.865L98.4926 222.188L94.9925 223.151ZM108.029 264.707C110.616 263.997 112.138 261.362 111.427 258.778C110.717 256.193 108.08 254.673 105.493 255.382C102.906 256.092 101.384 258.727 102.094 261.312C102.804 263.896 105.442 265.416 108.029 264.707ZM96.2099 224.519L131.92 234.097L132.884 230.601L97.1737 221.023L96.2099 224.519ZM135.319 228.117C132.732 227.408 130.094 228.979 129.384 231.513C128.674 234.047 130.246 236.733 132.783 237.442C135.319 238.152 138.007 236.581 138.717 234.047C139.427 231.513 137.855 228.827 135.319 228.117ZM74.9563 173.791L118.022 191.629L119.391 188.285L76.3258 170.446L74.9563 173.791ZM115.08 190.413L149.217 204.552L150.587 201.207L116.449 187.068L115.08 190.413ZM156.014 205.414C157.029 202.931 155.862 200.143 153.428 199.13C150.993 198.116 148.152 199.282 147.138 201.714C146.123 204.147 147.29 206.985 149.725 207.998C152.159 209.012 155 207.846 156.014 205.414ZM114.724 189.957L137.246 219.249L140.138 217.07L117.616 187.778L114.724 189.957ZM142.674 223.354C144.804 221.732 145.21 218.691 143.587 216.614C141.964 214.536 138.92 214.08 136.84 215.701C134.761 217.323 134.304 220.364 135.927 222.442C137.551 224.519 140.594 224.975 142.674 223.354ZM115.891 187.17L116.348 190.768L152.971 185.953L152.514 182.355L115.891 187.17ZM153.884 179.112C151.246 179.467 149.37 181.899 149.725 184.534C150.08 187.17 152.514 189.045 155.152 188.69C157.79 188.335 159.667 185.903 159.312 183.267C158.957 180.632 156.522 178.757 153.884 179.112ZM82.0577 151.999L128.623 151.999L128.623 148.401L82.007 148.401L82.007 151.999L82.0577 151.999ZM125.478 151.999L162.355 151.999L162.355 148.401L125.377 148.401L125.377 151.999L125.478 151.999ZM169 150.175C169 147.489 166.819 145.36 164.181 145.36C161.543 145.36 159.362 147.54 159.362 150.175C159.362 152.861 161.543 154.989 164.181 154.989C166.819 154.989 168.949 152.911 168.949 150.225L169 150.175ZM124.92 151.695L156.928 170.142L158.754 167L126.746 148.553L124.92 151.695ZM163.522 171.865C164.841 169.584 164.08 166.594 161.746 165.277C159.413 163.959 156.471 164.719 155.152 167.051C153.833 169.382 154.594 172.321 156.928 173.639C159.261 174.956 162.203 174.196 163.522 171.865ZM124.92 148.654L126.746 151.796L158.754 133.35L156.928 130.208L124.92 148.654ZM156.928 126.711C154.645 128.029 153.833 130.968 155.152 133.299C156.471 135.63 159.413 136.39 161.746 135.073C164.08 133.755 164.841 130.816 163.522 128.485C162.203 126.153 159.261 125.393 156.928 126.711ZM75.007 126.559L76.3766 129.904L119.442 112.065L118.072 108.72L75.007 126.559ZM115.13 109.936L116.5 113.281L150.638 99.142L149.268 95.7973L115.13 109.936ZM156.065 94.9865C155.051 92.5032 152.21 91.3377 149.775 92.4019C147.341 93.4661 146.123 96.2534 147.188 98.686C148.254 101.119 151.043 102.335 153.478 101.271C155.913 100.206 157.13 97.419 156.065 94.9865ZM115.942 113.231L152.565 118.045L153.022 114.447L116.398 109.632L115.942 113.231ZM159.362 117.133C159.717 114.497 157.841 112.065 155.203 111.71C152.565 111.355 150.13 113.231 149.775 115.866C149.42 118.501 151.297 120.934 153.935 121.288C156.572 121.643 159.007 119.768 159.362 117.133ZM114.826 110.443L117.717 112.622L140.239 83.3305L137.348 81.1514L114.826 110.443ZM135.978 77.908C134.355 80.0365 134.761 83.0265 136.891 84.6482C139.022 86.2699 142.014 85.8644 143.638 83.736C145.261 81.6075 144.855 78.6175 142.725 76.9958C140.594 75.3741 137.601 75.7795 135.978 77.908ZM64.6084 107.301L67.1447 109.835L100.116 76.8944L97.5795 74.3605L64.6084 107.301ZM95.2969 76.641L97.8331 79.1749L123.956 53.0758L121.42 50.5419L95.2969 76.641ZM127.355 47.1465C125.478 45.2714 122.435 45.2714 120.507 47.1465C118.58 49.0215 118.63 52.0622 120.507 53.988C122.384 55.9137 125.427 55.8631 127.355 53.988C129.283 52.1129 129.232 49.0722 127.355 47.1465ZM96.3114 75.8809L97.2752 79.3776L132.985 69.7995L132.022 66.3027L96.3114 75.8809ZM138.819 66.3534C138.109 63.7688 135.471 62.2485 132.884 62.958C130.297 63.6675 128.775 66.3027 129.485 68.8873C130.196 71.4719 132.833 72.9922 135.42 72.2827C138.007 71.5732 139.529 68.938 138.819 66.3534ZM95.094 77.1985L98.594 78.1614L108.181 42.4841L104.681 41.5212L95.094 77.1985ZM102.195 39.0887C101.485 41.6732 103.058 44.3085 105.594 45.018C108.13 45.7275 110.819 44.1565 111.529 41.6226C112.239 39.0887 110.667 36.4027 108.13 35.6932C105.594 34.9838 102.906 36.5548 102.195 39.0887ZM44.5214 93.2127L47.8692 94.581L65.7244 51.5554L62.3765 50.1871L44.5214 93.2127ZM61.1591 53.1265L64.507 54.4948L78.6592 20.3885L75.3114 19.0202L61.1591 53.1265ZM79.4708 13.6483C76.9853 12.6348 74.1954 13.8004 73.1809 16.2329C72.1664 18.6654 73.3331 21.5034 75.7679 22.517C78.2027 23.5305 81.0433 22.3649 82.0577 19.9324C83.0722 17.4999 81.9056 14.6619 79.4708 13.6483ZM61.8185 52.0622L63.9997 54.9509L93.3186 32.4498L91.1375 29.5612L61.8185 52.0622ZM97.4274 27.0273C95.8042 24.8988 92.7607 24.4934 90.681 26.1151C88.6012 27.7368 88.1447 30.7775 89.7679 32.8553C91.3911 34.9331 94.4346 35.3892 96.5143 33.7675C98.594 32.1458 99.0505 29.1051 97.4274 27.0273ZM56.391 17.1451L61.2099 53.7346L64.8113 53.2785L59.9925 16.689L56.391 17.1451ZM53.1953 15.8275C53.5504 18.4627 55.9852 20.3378 58.6229 19.9831C61.2606 19.6283 63.1374 17.1958 62.7823 14.5605C62.4273 11.9253 59.9925 10.0502 57.3548 10.4049C54.7171 10.7597 52.8403 13.1922 53.1953 15.8275Z" fill="url(#paint0_linear_98_1617)" fill-opacity="0.8"/>
<defs>
<linearGradient id="paint0_linear_98_1617" x1="84.5" y1="299.776" x2="84.5" y2="0.776116" gradientUnits="userSpaceOnUse">
<stop stop-color="#E0EFD0" stop-opacity="0.2"/>
<stop offset="1" stop-color="#4E75FF"/>
</linearGradient>
</defs>
</svg>
