<svg width="84" height="85" viewBox="0 0 84 85" fill="none" xmlns="http://www.w3.org/2000/svg">
<circle cx="32.4329" cy="32.7761" r="32" fill="#CAD4FA"/>
<path d="M82.9146 64.1467H80.3177C81.1725 63.3032 81.6525 62.1515 81.6494 60.9504C81.6489 59.8087 81.2158 58.7097 80.4375 57.8742C79.659 57.0391 78.5933 56.5297 77.4544 56.449L56.7717 54.6511L60.5141 50.0032L73.1926 49.7102C74.7153 49.6911 76.1119 48.8612 76.8566 47.5334C77.6015 46.2052 77.581 44.5807 76.8033 43.2717C76.0256 41.9626 74.6087 41.1678 73.086 41.1869H71.6343L60.2614 23.7005C59.2431 22.1232 57.4907 21.1743 55.6134 21.1834H43.6275C42.158 21.1834 40.7489 21.7672 39.7098 22.806C38.6711 23.845 38.0873 25.2542 38.0873 26.7236V51.0286H28.4715C26.5452 51.0192 24.6945 51.7772 23.3284 53.1353C21.9622 54.4932 21.1931 56.3393 21.1912 58.2657C21.1889 60.192 21.9541 62.0399 23.3176 63.4008C23.6228 63.704 23.9574 63.9762 24.3164 64.2132H20.5341V62.988C20.5314 62.0122 20.1982 61.0663 19.5886 60.3045C18.9791 59.5426 18.1295 59.0096 17.1781 58.7929C18.9654 57.6357 20.1635 55.7601 20.4617 53.6517C20.76 51.5433 20.1293 49.4092 18.7332 47.8016C17.3368 46.1938 15.3122 45.2707 13.1827 45.2707C11.0532 45.2707 9.02869 46.1938 7.63221 47.8016C6.23608 49.4092 5.60543 51.5434 5.90367 53.6517C6.20193 55.7601 7.39995 57.6357 9.18729 58.7929C8.23587 59.0096 7.38638 59.5426 6.77675 60.3045C6.16711 61.0663 5.83399 62.0122 5.83122 62.988V64.2132H5.08543C4.72502 64.2132 4.43286 64.5054 4.43286 64.8658V72.0574C4.43286 72.4178 4.72502 72.7099 5.08543 72.7099H8.17515V84.1234C8.17515 84.2988 8.24562 84.4669 8.37103 84.5895C8.49616 84.7124 8.66568 84.7796 8.84103 84.776H13.449C13.8094 84.776 14.1015 84.4838 14.1015 84.1234V72.6439H73.8985V84.0573C73.8985 84.4178 74.1907 84.7099 74.5511 84.7099H79.159C79.3344 84.7135 79.5039 84.6464 79.629 84.5235C79.7545 84.4008 79.8249 84.2327 79.8249 84.0573V72.6439H82.9146C83.2751 72.6439 83.5672 72.3517 83.5672 71.9913V64.7997C83.5672 64.4393 83.2751 64.1472 82.9146 64.1472L82.9146 64.1467ZM43.6404 22.4888H55.6264C57.063 22.4854 58.4028 23.2129 59.1822 24.4199L70.0892 41.1867H64.3626L57.504 32.1172C57.3345 31.891 57.039 31.7998 56.7715 31.8908C56.5021 31.9729 56.3182 32.2218 56.3187 32.5034V38.5364L50.0594 36.1791L47.0096 28.5081C46.8773 28.1699 46.4955 28.0028 46.1573 28.1352C45.8191 28.2675 45.652 28.6493 45.7844 28.9875L48.9407 36.9781C49.0023 37.1524 49.1394 37.2894 49.3136 37.351L56.9051 40.2143C57.7654 40.59 58.3648 41.3907 58.4821 42.3221C58.5997 43.2538 58.218 44.1783 57.4777 44.7557C56.7405 45.2582 55.8005 45.3583 54.974 45.0221L52.923 44.1564H52.8298L45.6119 41.1333C44.6109 40.7232 43.8088 39.9399 43.3746 38.9492L40.0051 31.3314C39.6087 30.443 39.4042 29.4808 39.4058 28.5081V26.7235C39.4058 25.6004 39.852 24.523 40.6463 23.7289C41.4404 22.9346 42.5178 22.4884 43.6409 22.4884L43.6404 22.4888ZM59.6217 41.1336C59.2618 40.1869 58.5374 39.4242 57.6107 39.0161V34.4614L62.6981 41.1869L59.6217 41.1336ZM39.3922 33.143L42.1757 39.4289C42.7436 40.7274 43.7943 41.7542 45.1056 42.2922L51.5114 44.9558L45.8114 51.0153H39.4056L39.3922 33.143ZM22.5188 58.2201C22.5252 56.6622 23.1533 55.1711 24.2634 54.0783C25.3718 52.9441 26.8995 52.3176 28.4852 52.347L46.0916 52.4269C46.2725 52.4311 46.4467 52.3586 46.571 52.2271L52.8037 45.5683L54.4685 46.2608C54.9484 46.4655 55.465 46.5696 55.9867 46.5671C56.7907 46.5638 57.5754 46.3177 58.2374 45.8613C59.3625 45.1216 60.0231 43.8511 59.982 42.5052H73.1534C73.9059 42.5005 74.6314 42.7868 75.1777 43.3042C75.7484 43.8403 76.0819 44.5819 76.1044 45.3646C76.1269 46.1471 75.8367 46.9064 75.2979 47.4747C74.7591 48.0429 74.0161 48.3728 73.2334 48.3916L60.1685 48.7512C59.9771 48.7548 59.797 48.8425 59.6758 48.9909L54.9879 54.8374C54.8389 55.0263 54.8031 55.2807 54.8947 55.5033C54.9904 55.7258 55.1996 55.8789 55.4407 55.9028L77.3614 57.8072C78.174 57.8549 78.937 58.2137 79.4922 58.8085C80.0477 59.4037 80.3528 60.1897 80.3445 61.0035C80.3409 61.8525 80.0013 62.6654 79.3998 63.2644C78.7983 63.8634 77.9839 64.1997 77.1349 64.1997H51.8312C52.5737 63.4162 52.9868 62.3771 52.9851 61.2979C52.9832 60.2183 52.5667 59.1806 51.8215 58.3996C51.0763 57.6185 50.0594 57.1538 48.9812 57.1014L38.7667 56.7418L37.7412 56.6619L31.3487 55.8762C31.1761 55.8498 31.0005 55.8964 30.864 56.0052C30.7272 56.114 30.6423 56.2749 30.6295 56.4489C30.5824 56.8054 30.8323 57.1331 31.1889 57.1813L37.5814 57.967C37.9676 57.967 38.3405 58.0336 38.7267 58.0469L48.915 58.3799C49.9035 58.4609 50.7822 59.0413 51.245 59.9183C51.7081 60.7957 51.6912 61.8486 51.2004 62.7104C50.7093 63.5721 49.8123 64.1237 48.8218 64.1731H28.4453C26.8724 64.1767 25.363 63.5533 24.2507 62.4412C23.1387 61.3289 22.5152 59.8196 22.5189 58.2467L22.5188 58.2201ZM7.16328 52.5734C7.16328 50.9725 7.79948 49.4373 8.93173 48.3059C10.0643 47.1744 11.5997 46.5393 13.2007 46.5405C14.8016 46.5416 16.3362 47.1789 17.4667 48.3123C18.5976 49.4454 19.2314 50.9813 19.2291 52.5822C19.2266 54.1831 18.5882 55.7172 17.4542 56.8473C16.3203 57.977 14.7837 58.6099 13.1828 58.6063C11.585 58.6027 10.054 57.9657 8.92556 56.8345C7.79685 55.7036 7.16321 54.1713 7.16321 52.5734L7.16328 52.5734ZM7.16328 62.9214C7.16328 62.1254 7.47847 61.3619 8.04005 60.7978C8.60161 60.2338 9.3638 59.9152 10.1598 59.9116H16.2193C17.0154 59.9152 17.7776 60.2337 18.3391 60.7978C18.9007 61.3619 19.2159 62.1254 19.2159 62.9214V64.1467H7.22991L7.16328 62.9214ZM12.7966 83.3775H9.49385V72.6437H12.7966V83.3775ZM78.506 83.3775H75.2032V72.6437H78.506V83.3775ZM82.2616 71.3915H5.73612V65.4518H82.2616V71.3915Z" fill="#0C0421"/>
<path d="M48.5129 19.4523C50.4589 19.4523 52.3257 18.6793 53.7019 17.3032C55.078 15.927 55.851 14.0603 55.851 12.1142C55.851 10.1681 55.078 8.30145 53.7019 6.92529C52.3257 5.54912 50.459 4.77612 48.5129 4.77612C46.5668 4.77612 44.7001 5.54912 43.324 6.92529C41.9478 8.30145 41.1748 10.1681 41.1748 12.1142C41.1748 14.0603 41.9478 15.927 43.324 17.3032C44.7001 18.6793 46.5668 19.4523 48.5129 19.4523ZM48.5129 6.1346C50.113 6.1346 51.6476 6.77025 52.7788 7.90171C53.9103 9.0329 54.5459 10.5675 54.5459 12.1676C54.5459 13.7677 53.9102 15.3022 52.7788 16.4334C51.6476 17.5649 50.113 18.2005 48.5129 18.2005C46.9128 18.2005 45.3782 17.5649 44.247 16.4334C43.1156 15.3022 42.4799 13.7677 42.4799 12.1676C42.4835 10.5686 43.1203 9.03624 44.251 7.90561C45.3816 6.77499 46.9139 6.13823 48.5129 6.1346Z" fill="#0C0421"/>
</svg>
