<svg width="48" height="48" viewBox="0 0 48 48" fill="none" xmlns="http://www.w3.org/2000/svg">
<rect width="48" height="48" rx="4" fill="#0C0421"/>
<path d="M42.5686 14.3712H42.0146V7.2061H42.5686V14.3712ZM42.5686 2.01356H42.0146V7.69729H42.5686V2.02136V2.01356ZM42.2877 1C41.8741 1 41.5463 1.33525 41.5463 1.74068C41.5463 2.1461 41.8819 2.48136 42.2877 2.48136C42.6935 2.48136 43.0291 2.1461 43.0291 1.74068C43.0291 1.33525 42.6935 1 42.2877 1ZM45.3624 2.85559L44.8786 2.57492L42.038 7.49458L42.5218 7.77525L45.3624 2.85559ZM45.6277 1.84203C45.2765 1.63932 44.8161 1.75627 44.6132 2.11492C44.4103 2.47356 44.5274 2.92576 44.8864 3.12847C45.2453 3.33119 45.698 3.21424 45.9009 2.85559C46.1038 2.49695 45.9867 2.04475 45.6277 1.84203ZM42.5374 7.49458L39.6968 2.57492L39.213 2.85559L42.0536 7.77525L42.5374 7.49458ZM38.6745 2.85559C38.8774 3.20644 39.33 3.33119 39.689 3.12847C40.048 2.92576 40.1651 2.47356 39.9622 2.11492C39.7593 1.75627 39.3066 1.63932 38.9477 1.84203C38.5887 2.04475 38.4716 2.49695 38.6745 2.85559ZM42.5686 33.6366H42.0146V40.8017H42.5686V33.6366ZM42.5686 40.3105H42.0146V45.9942H42.5686V40.3105ZM42.2877 47C42.7013 47 43.0291 46.6647 43.0291 46.2593C43.0291 45.8539 42.6935 45.5186 42.2877 45.5186C41.8819 45.5186 41.5463 45.8539 41.5463 46.2593C41.5463 46.6647 41.8819 47 42.2877 47ZM42.5374 40.5054L42.0536 40.2247L39.213 45.1444L39.6968 45.4251L42.5374 40.5054ZM38.9477 46.158C39.2988 46.3607 39.7593 46.2437 39.9622 45.8851C40.1651 45.5264 40.048 45.0742 39.689 44.8715C39.33 44.6688 38.8774 44.7858 38.6745 45.1444C38.4716 45.503 38.5887 45.9553 38.9477 46.158ZM45.3624 45.1444L42.5218 40.2247L42.038 40.5054L44.8786 45.4251L45.3624 45.1444ZM45.9009 45.1444C45.698 44.7936 45.2453 44.6688 44.8864 44.8715C44.5274 45.0742 44.4103 45.5264 44.6132 45.8851C44.8161 46.2437 45.2687 46.3607 45.6277 46.158C45.9867 45.9553 46.1038 45.503 45.9009 45.1444ZM39.1662 15.2444L36.4192 8.62509L35.9042 8.83559L38.6511 15.4549L39.1662 15.2444ZM36.6065 9.07729L34.4292 3.83017L33.9142 4.04068L36.0915 9.2878L36.6065 9.07729ZM33.7893 3.00373C33.407 3.15966 33.2275 3.59627 33.3913 3.97051C33.5552 4.34475 33.9844 4.53186 34.359 4.36814C34.7336 4.20441 34.9209 3.77559 34.757 3.40136C34.5931 3.02712 34.1639 2.84 33.7893 3.00373ZM37.3401 3.54169L36.786 3.47153L36.0446 9.10068L36.5987 9.17085L37.3401 3.54169ZM37.1996 2.50475C36.7938 2.45017 36.4192 2.73864 36.3646 3.14407C36.31 3.54949 36.5987 3.92373 37.0045 3.9783C37.4103 4.03288 37.7849 3.74441 37.8395 3.33898C37.8941 2.93356 37.6054 2.55932 37.1996 2.50475ZM36.5051 8.91356L31.9945 5.45186L31.6589 5.89627L36.1695 9.35797L36.5051 8.91356ZM31.1595 6.09898C31.4872 6.34847 31.9476 6.2861 32.1974 5.95864C32.4471 5.63119 32.3847 5.17119 32.0569 4.92169C31.7291 4.6722 31.2687 4.73458 31.019 5.06203C30.7693 5.38949 30.8317 5.84949 31.1595 6.09898ZM36.0759 17.4197L31.0034 12.3519L30.6132 12.7417L35.6857 17.8095L36.0759 17.4197ZM31.3545 12.7027L27.3356 8.68746L26.9454 9.07729L30.9644 13.0925L31.3545 12.7027ZM26.4225 8.16509C26.1338 8.45356 26.1338 8.92136 26.4225 9.21763C26.7113 9.5139 27.1795 9.5061 27.4761 9.21763C27.7726 8.92915 27.7648 8.46136 27.4761 8.16509C27.1873 7.86881 26.7191 7.87661 26.4225 8.16509ZM31.3858 12.7885L29.9108 7.29966L29.3724 7.4478L30.8473 12.9366L31.3858 12.7885ZM29.3802 6.39525C28.9822 6.50441 28.7481 6.90983 28.8573 7.30746C28.9666 7.70508 29.3724 7.93898 29.7704 7.82983C30.1684 7.72068 30.4025 7.31525 30.2932 6.91763C30.184 6.52 29.7782 6.2861 29.3802 6.39525ZM31.1985 12.578L25.7046 11.1044L25.5563 11.6424L31.0502 13.1159L31.1985 12.578ZM25.1817 12.0244C25.5797 12.1336 25.9855 11.8919 26.0948 11.502C26.204 11.1122 25.9621 10.699 25.5719 10.5898C25.1817 10.4807 24.7681 10.7224 24.6589 11.1122C24.5496 11.502 24.7915 11.9153 25.1817 12.0244ZM34.4683 20.3824L27.8428 17.638L27.6321 18.1525L34.2576 20.8969L34.4683 20.3824ZM28.2955 17.8251L23.0435 15.6498L22.8328 16.1644L28.0848 18.3397L28.2955 17.8251ZM21.9978 15.5173C21.8417 15.8993 22.0212 16.3281 22.3958 16.4841C22.7704 16.64 23.2074 16.4607 23.3634 16.0864C23.5195 15.7122 23.34 15.2756 22.9654 15.1197C22.5909 14.9637 22.1539 15.1431 21.9978 15.5173ZM28.3501 17.8953L24.8852 13.3888L24.4404 13.7241L27.9053 18.2305L28.3501 17.8953ZM24.0502 12.7573C23.7224 13.0068 23.66 13.4746 23.9097 13.7942C24.1594 14.1139 24.6277 14.1841 24.9476 13.9346C25.2676 13.6851 25.3378 13.2173 25.0881 12.8976C24.8384 12.578 24.3701 12.5078 24.0502 12.7573ZM28.1706 18.3241L28.1004 17.7705L22.466 18.5112L22.5362 19.0647L28.1706 18.3241ZM22.3255 19.5637C22.7313 19.5092 23.0201 19.1349 22.9654 18.7295C22.9108 18.3241 22.5362 18.0356 22.1304 18.0902C21.7246 18.1447 21.4359 18.519 21.4905 18.9244C21.5452 19.3298 21.9197 19.6183 22.3255 19.5637ZM33.3757 23.7349H26.2118V24.2885H33.3835V23.7349H33.3757ZM26.6957 23.7349H21.0223V24.2885H26.7113V23.7349H26.6957ZM20 24.0156C20 24.4288 20.3356 24.7563 20.7414 24.7563C21.1472 24.7563 21.4827 24.421 21.4827 24.0156C21.4827 23.6024 21.1472 23.2749 20.7414 23.2749C20.3356 23.2749 20.0078 23.5946 20.0078 24.0078L20 24.0156ZM26.7815 23.7817L21.8573 20.9437L21.5764 21.4271L26.5006 24.2651L26.7815 23.7817ZM20.8428 20.6786C20.6399 21.0295 20.757 21.4895 21.1159 21.6922C21.4749 21.8949 21.9275 21.778 22.1304 21.4193C22.3333 21.0607 22.2163 20.6085 21.8573 20.4058C21.4983 20.203 21.0457 20.32 20.8428 20.6786ZM26.7815 24.2495L26.5006 23.7661L21.5764 26.6041L21.8573 27.0875L26.7815 24.2495ZM21.8573 27.6254C22.2085 27.4227 22.3333 26.9705 22.1304 26.6119C21.9275 26.2532 21.4749 26.1363 21.1159 26.339C20.757 26.5417 20.6399 26.9939 20.8428 27.3525C21.0457 27.7112 21.4983 27.8281 21.8573 27.6254ZM34.4605 27.6488L34.2498 27.1342L27.6243 29.8786L27.835 30.3932L34.4605 27.6488ZM28.2876 30.2061L28.0769 29.6915L22.825 31.8668L23.0357 32.3814L28.2876 30.2061ZM21.99 32.5061C22.146 32.8881 22.5831 33.0675 22.9576 32.9037C23.3322 32.74 23.5195 32.3112 23.3556 31.9369C23.1918 31.5627 22.7625 31.3756 22.388 31.5393C22.0134 31.703 21.8261 32.1319 21.99 32.5061ZM28.1628 29.6993L22.5284 28.9586L22.4582 29.5122L28.0926 30.2529L28.1628 29.6993ZM21.4827 29.099C21.4281 29.5044 21.7168 29.8786 22.1226 29.9332C22.5284 29.9878 22.903 29.6993 22.9576 29.2939C23.0123 28.8885 22.7235 28.5142 22.3177 28.4597C21.9119 28.4051 21.5374 28.6936 21.4827 29.099ZM28.3345 30.1281L27.8897 29.7929L24.4248 34.2993L24.8696 34.6346L28.3345 30.1281ZM25.0803 35.1336C25.33 34.8061 25.2676 34.3461 24.9398 34.0966C24.6121 33.8471 24.1516 33.9095 23.9019 34.2369C23.6522 34.5644 23.7146 35.0244 24.0424 35.2739C24.3701 35.5234 24.8306 35.461 25.0803 35.1336ZM36.0602 30.6115L35.6701 30.2217L30.5976 35.2895L30.9878 35.6793L36.0602 30.6115ZM31.3389 35.3285L30.9487 34.9386L26.9298 38.9539L27.32 39.3437L31.3389 35.3285ZM26.4069 39.8661C26.6957 40.1546 27.1639 40.1546 27.4604 39.8661C27.757 39.5776 27.7492 39.1098 27.4604 38.8136C27.1717 38.5173 26.7035 38.5251 26.4069 38.8136C26.1104 39.102 26.1182 39.5698 26.4069 39.8661ZM31.1829 35.4454L31.0346 34.9075L25.5407 36.381L25.689 36.919L31.1829 35.4454ZM24.6433 36.9112C24.7525 37.3088 25.1583 37.5427 25.5563 37.4336C25.9543 37.3244 26.1884 36.919 26.0792 36.5214C25.9699 36.1237 25.5641 35.8898 25.1661 35.999C24.7681 36.1081 24.534 36.5136 24.6433 36.9112ZM31.3702 35.2427L30.8317 35.0946L29.3568 40.5834L29.8952 40.7315L31.3702 35.2427ZM30.2776 41.1058C30.3869 40.7081 30.145 40.3027 29.7548 40.1936C29.3646 40.0844 28.951 40.3261 28.8417 40.7159C28.7325 41.1058 28.9744 41.519 29.3646 41.6281C29.7548 41.7373 30.1684 41.4956 30.2776 41.1058ZM39.1506 32.779L38.6355 32.5685L35.8886 39.1878L36.4036 39.3983L39.1506 32.779ZM36.5909 38.9461L36.0759 38.7356L33.8986 43.9827L34.4136 44.1932L36.5909 38.9461ZM33.7737 45.0197C34.1561 45.1756 34.5853 44.9963 34.7414 44.622C34.8975 44.2478 34.718 43.8112 34.3434 43.6553C33.9688 43.4993 33.5318 43.6786 33.3757 44.0529C33.2197 44.4271 33.3991 44.8637 33.7737 45.0197ZM36.4895 39.1098L36.1539 38.6654L31.6433 42.1271L31.9789 42.5715L36.4895 39.1098ZM31.0112 42.9614C31.2609 43.2888 31.7291 43.3512 32.0491 43.1017C32.369 42.8522 32.4393 42.3844 32.1896 42.0647C31.9398 41.7451 31.4716 41.6749 31.1516 41.9244C30.8317 42.1739 30.7615 42.6417 31.0112 42.9614ZM37.3245 44.4817L36.5831 38.8525L36.029 38.9227L36.7704 44.5519L37.3245 44.4817ZM37.8161 44.6844C37.7615 44.279 37.3869 43.9905 36.9811 44.0451C36.5753 44.0997 36.2866 44.4739 36.3412 44.8793C36.3958 45.2847 36.7704 45.5732 37.1762 45.5186C37.582 45.4641 37.8707 45.0898 37.8161 44.6844Z" fill="url(#paint0_linear_111_2715)"/>
<defs>
<linearGradient id="paint0_linear_111_2715" x1="33" y1="1" x2="33" y2="47" gradientUnits="userSpaceOnUse">
<stop stop-color="#E8F5C8"/>
<stop offset="1" stop-color="#4E75FF"/>
</linearGradient>
</defs>
</svg>
