<svg width="272" height="88" viewBox="0 0 272 88" fill="none" xmlns="http://www.w3.org/2000/svg">
<path d="M38.8982 20.4277H38.2627V32.5944H38.8982V20.4277Z" fill="#0C0421"/>
<path d="M38.8982 11.6107H38.2627V21.262H38.8982V11.6107Z" fill="#0C0421"/>
<path d="M38.5803 12.4049C39.275 12.4049 39.8381 11.8419 39.8381 11.1472C39.8381 10.4526 39.275 9.88953 38.5803 9.88953C37.8857 9.88953 37.3226 10.4526 37.3226 11.1472C37.3226 11.8419 37.8857 12.4049 38.5803 12.4049Z" fill="#0C0421"/>
<path d="M43.1271 12.6445L38.2957 20.9994L38.8458 21.3175L43.6772 12.9626L43.1271 12.6445Z" fill="#0C0421"/>
<path d="M43.6112 13.6626C44.3058 13.6626 44.8689 13.0995 44.8689 12.4049C44.8689 11.7103 44.3058 11.1472 43.6112 11.1472C42.9166 11.1472 42.3535 11.7103 42.3535 12.4049C42.3535 13.0995 42.9166 13.6626 43.6112 13.6626Z" fill="#0C0421"/>
<path d="M34.0464 12.6432L33.4961 12.9609L38.3217 21.3192L38.8721 21.0014L34.0464 12.6432Z" fill="#0C0421"/>
<path d="M33.5363 13.6626C34.2309 13.6626 34.794 13.0995 34.794 12.4049C34.794 11.7103 34.2309 11.1472 33.5363 11.1472C32.8417 11.1472 32.2786 11.7103 32.2786 12.4049C32.2786 13.0995 32.8417 13.6626 33.5363 13.6626Z" fill="#0C0421"/>
<path d="M38.8982 65.3082H38.2627V77.4749H38.8982V65.3082Z" fill="#0C0421"/>
<path d="M38.8982 76.6409H38.2627V86.2921H38.8982V76.6409Z" fill="#0C0421"/>
<path d="M38.5803 88C39.275 88 39.8381 87.4369 39.8381 86.7423C39.8381 86.0477 39.275 85.4846 38.5803 85.4846C37.8857 85.4846 37.3226 86.0477 37.3226 86.7423C37.3226 87.4369 37.8857 88 38.5803 88Z" fill="#0C0421"/>
<path d="M38.3298 76.5847L33.4983 84.9396L34.0484 85.2577L38.8799 76.9028L38.3298 76.5847Z" fill="#0C0421"/>
<path d="M33.5363 86.7422C34.2309 86.7422 34.794 86.1791 34.794 85.4845C34.794 84.7899 34.2309 84.2268 33.5363 84.2268C32.8417 84.2268 32.2786 84.7899 32.2786 85.4845C32.2786 86.1791 32.8417 86.7422 33.5363 86.7422Z" fill="#0C0421"/>
<path d="M38.839 76.5752L38.2887 76.8929L43.1143 85.2512L43.6647 84.9335L38.839 76.5752Z" fill="#0C0421"/>
<path d="M43.6112 86.7422C44.3058 86.7422 44.8689 86.1791 44.8689 85.4845C44.8689 84.7899 44.3058 84.2268 43.6112 84.2268C42.9166 84.2268 42.3535 84.7899 42.3535 85.4845C42.3535 86.1791 42.9166 86.7422 43.6112 86.7422Z" fill="#0C0421"/>
<path d="M28.4909 22.8861L27.9038 23.1293L32.5598 34.3698L33.1469 34.1266L28.4909 22.8861Z" fill="#0C0421"/>
<path d="M25.1088 14.7341L24.5217 14.9774L28.2167 23.8934L28.8037 23.6501L25.1088 14.7341Z" fill="#0C0421"/>
<path d="M24.6395 15.7015C25.3342 15.7015 25.8973 15.1384 25.8973 14.4437C25.8973 13.7491 25.3342 13.186 24.6395 13.186C23.9449 13.186 23.3818 13.7491 23.3818 14.4437C23.3818 15.1384 23.9449 15.7015 24.6395 15.7015Z" fill="#0C0421"/>
<path d="M28.7702 23.7245L28.1479 23.645L29.4057 14.0864L30.0279 14.1659L28.7702 23.7245Z" fill="#0C0421"/>
<path d="M29.7764 14.9336C30.471 14.9336 31.0341 14.3705 31.0341 13.6759C31.0341 12.9813 30.471 12.4182 29.7764 12.4182C29.0818 12.4182 28.5187 12.9813 28.5187 13.6759C28.5187 14.3705 29.0818 14.9336 29.7764 14.9336Z" fill="#0C0421"/>
<path d="M21.0414 17.5561L20.6545 18.0603L28.3114 23.9356L28.6983 23.4315L21.0414 17.5561Z" fill="#0C0421"/>
<path d="M20.4693 18.7863C21.1639 18.7863 21.727 18.2232 21.727 17.5286C21.727 16.834 21.1639 16.2709 20.4693 16.2709C19.7746 16.2709 19.2115 16.834 19.2115 17.5286C19.2115 18.2232 19.7746 18.7863 20.4693 18.7863Z" fill="#0C0421"/>
<path d="M19.3265 29.2563L18.8772 29.7057L27.4804 38.3088L27.9297 37.8595L19.3265 29.2563Z" fill="#0C0421"/>
<path d="M13.0953 23.0231L12.646 23.4724L19.4705 30.2969L19.9198 29.8475L13.0953 23.0231Z" fill="#0C0421"/>
<path d="M12.5524 24.1745C13.247 24.1745 13.8101 23.6114 13.8101 22.9168C13.8101 22.2222 13.247 21.6591 12.5524 21.6591C11.8578 21.6591 11.2947 22.2222 11.2947 22.9168C11.2947 23.6114 11.8578 24.1745 12.5524 24.1745Z" fill="#0C0421"/>
<path d="M17.4384 20.6001L16.8246 20.7645L19.3225 30.0869L19.9363 29.9225L17.4384 20.6001Z" fill="#0C0421"/>
<path d="M17.0006 21.5133C17.6952 21.5133 18.2583 20.9503 18.2583 20.2556C18.2583 19.561 17.6952 18.9979 17.0006 18.9979C16.306 18.9979 15.7429 19.561 15.7429 20.2556C15.7429 20.9503 16.306 21.5133 17.0006 21.5133Z" fill="#0C0421"/>
<path d="M10.4136 27.1853L10.249 27.7991L19.571 30.2986L19.7356 29.6848L10.4136 27.1853Z" fill="#0C0421"/>
<path d="M9.87807 28.6361C10.5727 28.6361 11.1358 28.0731 11.1358 27.3784C11.1358 26.6838 10.5727 26.1207 9.87807 26.1207C9.18346 26.1207 8.62036 26.6838 8.62036 27.3784C8.62036 28.0731 9.18346 28.6361 9.87807 28.6361Z" fill="#0C0421"/>
<path d="M14.0161 38.269L13.7729 38.8561L25.0135 43.5121L25.2567 42.925L14.0161 38.269Z" fill="#0C0421"/>
<path d="M5.87258 34.886L5.62939 35.4731L14.546 39.1665L14.7892 38.5794L5.87258 34.886Z" fill="#0C0421"/>
<path d="M5.32387 36.2751C6.01849 36.2751 6.58158 35.712 6.58158 35.0174C6.58158 34.3227 6.01849 33.7596 5.32387 33.7596C4.62926 33.7596 4.06616 34.3227 4.06616 35.0174C4.06616 35.712 4.62926 36.2751 5.32387 36.2751Z" fill="#0C0421"/>
<path d="M8.95374 31.0037L8.44958 31.3905L14.3249 39.0474L14.8291 38.6605L8.95374 31.0037Z" fill="#0C0421"/>
<path d="M8.42177 32.0913C9.11639 32.0913 9.67948 31.5283 9.67948 30.8336C9.67948 30.139 9.11639 29.5759 8.42177 29.5759C7.72716 29.5759 7.16406 30.139 7.16406 30.8336C7.16406 31.5283 7.72716 32.0913 8.42177 32.0913Z" fill="#0C0421"/>
<path d="M5.05905 40.3923L4.97961 39.77L14.5382 38.5123L14.6177 39.1346L5.05905 40.3923Z" fill="#0C0421"/>
<path d="M4.56923 41.3985C5.26385 41.3985 5.82694 40.8354 5.82694 40.1408C5.82694 39.4462 5.26385 38.8831 4.56923 38.8831C3.87462 38.8831 3.31152 39.4462 3.31152 40.1408C3.31152 40.8354 3.87462 41.3985 4.56923 41.3985Z" fill="#0C0421"/>
<path d="M23.4746 48.6271H11.3079V49.2625H23.4746V48.6271Z" fill="#0C0421"/>
<path d="M12.1552 48.6271H2.50391V49.2625H12.1552V48.6271Z" fill="#0C0421"/>
<path d="M2.04055 50.2026C2.73516 50.2026 3.29826 49.6395 3.29826 48.9448C3.29826 48.2502 2.73516 47.6871 2.04055 47.6871C1.34593 47.6871 0.782837 48.2502 0.782837 48.9448C0.782837 49.6395 1.34593 50.2026 2.04055 50.2026Z" fill="#0C0421"/>
<path d="M3.86364 43.8613L3.5459 44.4116L11.9041 49.2373L12.2219 48.6869L3.86364 43.8613Z" fill="#0C0421"/>
<path d="M3.29824 45.1715C3.99285 45.1715 4.55595 44.6084 4.55595 43.9138C4.55595 43.2192 3.99285 42.6561 3.29824 42.6561C2.60362 42.6561 2.04053 43.2192 2.04053 43.9138C2.04053 44.6084 2.60362 45.1715 3.29824 45.1715Z" fill="#0C0421"/>
<path d="M11.8963 48.6505L3.54138 53.4819L3.8595 54.032L12.2144 49.2006L11.8963 48.6505Z" fill="#0C0421"/>
<path d="M3.29824 55.2465C3.99285 55.2465 4.55595 54.6834 4.55595 53.9888C4.55595 53.2942 3.99285 52.7311 3.29824 52.7311C2.60362 52.7311 2.04053 53.2942 2.04053 53.9888C2.04053 54.6834 2.60362 55.2465 3.29824 55.2465Z" fill="#0C0421"/>
<path d="M25.0069 54.3895L13.7631 59.0376L14.0058 59.6249L25.2496 54.9767L25.0069 54.3895Z" fill="#0C0421"/>
<path d="M14.5441 58.729L5.62488 62.4161L5.86765 63.0034L14.7868 59.3163L14.5441 58.729Z" fill="#0C0421"/>
<path d="M5.32387 64.1432C6.01849 64.1432 6.58158 63.5801 6.58158 62.8855C6.58158 62.1909 6.01849 61.6278 5.32387 61.6278C4.62926 61.6278 4.06616 62.1909 4.06616 62.8855C4.06616 63.5801 4.62926 64.1432 5.32387 64.1432Z" fill="#0C0421"/>
<path d="M14.5382 59.3771L4.97961 58.1194L5.05905 57.4972L14.6177 58.7549L14.5382 59.3771Z" fill="#0C0421"/>
<path d="M4.56923 59.0063C5.26385 59.0063 5.82694 58.4432 5.82694 57.7486C5.82694 57.0539 5.26385 56.4908 4.56923 56.4908C3.87462 56.4908 3.31152 57.0539 3.31152 57.7486C3.31152 58.4432 3.87462 59.0063 4.56923 59.0063Z" fill="#0C0421"/>
<path d="M14.327 58.841L8.45435 66.4999L8.95864 66.8866L14.8313 59.2276L14.327 58.841Z" fill="#0C0421"/>
<path d="M8.42177 68.3135C9.11639 68.3135 9.67948 67.7504 9.67948 67.0558C9.67948 66.3612 9.11639 65.7981 8.42177 65.7981C7.72716 65.7981 7.16406 66.3612 7.16406 67.0558C7.16406 67.7504 7.72716 68.3135 8.42177 68.3135Z" fill="#0C0421"/>
<path d="M27.4895 59.5868L18.8864 68.1899L19.3357 68.6393L27.9389 60.0361L27.4895 59.5868Z" fill="#0C0421"/>
<path d="M19.4776 67.5967L12.6531 74.4211L13.1024 74.8705L19.9269 68.046L19.4776 67.5967Z" fill="#0C0421"/>
<path d="M12.5524 76.2305C13.247 76.2305 13.8101 75.6674 13.8101 74.9728C13.8101 74.2782 13.247 73.7151 12.5524 73.7151C11.8578 73.7151 11.2947 74.2782 11.2947 74.9728C11.2947 75.6674 11.8578 76.2305 12.5524 76.2305Z" fill="#0C0421"/>
<path d="M19.5651 67.6041L10.2432 70.1036L10.4077 70.7174L19.7297 68.2179L19.5651 67.6041Z" fill="#0C0421"/>
<path d="M9.87807 71.7821C10.5727 71.7821 11.1358 71.219 11.1358 70.5244C11.1358 69.8298 10.5727 69.2667 9.87807 69.2667C9.18346 69.2667 8.62036 69.8298 8.62036 70.5244C8.62036 71.219 9.18346 71.7821 9.87807 71.7821Z" fill="#0C0421"/>
<path d="M17.5832 77.3293L16.6697 77.0777L19.1586 67.7574L20.0721 68.009L17.5832 77.3293Z" fill="#0C0421"/>
<path d="M17.0006 78.9047C17.6952 78.9047 18.2583 78.3416 18.2583 77.647C18.2583 76.9524 17.6952 76.3893 17.0006 76.3893C16.306 76.3893 15.7429 76.9524 15.7429 77.647C15.7429 78.3416 16.306 78.9047 17.0006 78.9047Z" fill="#0C0421"/>
<path d="M32.5655 63.5249L27.9174 74.7687L28.5046 75.0115L33.1528 63.7676L32.5655 63.5249Z" fill="#0C0421"/>
<path d="M28.2207 74.0131L24.5336 82.9323L25.1208 83.175L28.808 74.2558L28.2207 74.0131Z" fill="#0C0421"/>
<path d="M24.6397 84.7168C25.3343 84.7168 25.8974 84.1537 25.8974 83.4591C25.8974 82.7645 25.3343 82.2014 24.6397 82.2014C23.9451 82.2014 23.382 82.7645 23.382 83.4591C23.382 84.1537 23.9451 84.7168 24.6397 84.7168Z" fill="#0C0421"/>
<path d="M28.2948 73.9754L20.6359 79.848L21.0225 80.3523L28.6815 74.4797L28.2948 73.9754Z" fill="#0C0421"/>
<path d="M20.4693 81.6187C21.1639 81.6187 21.727 81.0556 21.727 80.361C21.727 79.6664 21.1639 79.1033 20.4693 79.1033C19.7746 79.1033 19.2115 79.6664 19.2115 80.361C19.2115 81.0556 19.7746 81.6187 20.4693 81.6187Z" fill="#0C0421"/>
<path d="M29.4057 83.8033L28.1479 74.2447L28.7702 74.1653L30.0279 83.7239L29.4057 83.8033Z" fill="#0C0421"/>
<path d="M29.7764 85.4711C30.471 85.4711 31.0341 84.908 31.0341 84.2134C31.0341 83.5188 30.471 82.9557 29.7764 82.9557C29.0818 82.9557 28.5187 83.5188 28.5187 84.2134C28.5187 84.908 29.0818 85.4711 29.7764 85.4711Z" fill="#0C0421"/>
<path d="M223.662 66.5528C222.683 66.2748 221.875 65.8776 221.253 65.3613C220.631 64.845 220.326 64.2492 220.326 63.5873V60.6085H220.829C221.147 62.462 221.756 63.7991 222.669 64.6199C223.583 65.4407 224.827 65.8512 226.416 65.8512C227.422 65.8512 228.27 65.5996 228.985 65.0965C229.699 64.5934 230.057 63.905 230.057 63.0048C230.057 62.2237 229.819 61.5485 229.329 60.9792C228.852 60.4099 228.071 59.8009 226.999 59.1654L223.583 57.1399C222.391 56.4382 221.557 55.7233 221.068 54.9951C220.578 54.267 220.326 53.3932 220.326 52.3473C220.326 50.9175 220.829 49.7789 221.809 48.9184C222.802 48.0579 224.099 47.621 225.714 47.621C226.654 47.621 227.594 47.7534 228.521 48.0181C229.448 48.2829 230.216 48.6801 230.812 49.1832C231.407 49.6863 231.712 50.282 231.712 50.944V53.9228H231.209C230.891 52.0693 230.295 50.7454 229.421 49.9378C228.534 49.1302 227.303 48.7331 225.714 48.7331C224.867 48.7331 224.113 48.9978 223.464 49.5142C222.815 50.0305 222.497 50.7057 222.497 51.5397C222.497 52.2944 222.736 52.9298 223.212 53.4329C223.689 53.936 224.483 54.5185 225.582 55.1805L228.998 57.206C230.255 57.9607 231.142 58.6756 231.672 59.3243C232.188 59.973 232.453 60.7938 232.453 61.8C232.453 63.3622 231.937 64.6067 230.891 65.5334C229.858 66.4734 228.442 66.9368 226.668 66.9368C225.648 66.9368 224.642 66.8044 223.662 66.5263V66.5528Z" fill="#0C0421"/>
<path d="M239.364 51.4735C239.364 50.5335 239.231 49.8318 238.98 49.3684C238.728 48.9051 238.199 48.6932 237.418 48.6932H236.862V48.1372H244.09C245.864 48.1372 247.466 48.5211 248.896 49.2758C250.326 50.0304 251.041 51.5132 251.041 53.6976C251.041 55.1407 250.67 56.2528 249.929 57.0339C249.187 57.815 248.353 58.3313 247.44 58.5961C246.526 58.8608 245.679 58.98 244.924 58.98H241.866V66.4865H239.364V51.4735ZM245.838 57.5502C246.5 57.2457 247.069 56.7558 247.546 56.0939C248.022 55.4319 248.261 54.5846 248.261 53.5652C248.261 52.5458 248.022 51.6985 247.546 51.0366C247.069 50.3746 246.5 49.8848 245.838 49.5803C245.176 49.2758 244.54 49.1169 243.945 49.1169C243.296 49.1169 242.594 49.2096 241.853 49.3949V57.7355C242.594 57.9209 243.283 58.0135 243.945 58.0135C244.54 58.0135 245.163 57.8547 245.838 57.5502Z" fill="#0C0421"/>
<path d="M267.417 65.8908C266.544 65.4009 265.855 64.4477 265.326 63.0179L264.624 61.2042H256.839L254.615 66.4865H253.358L261.142 48.1372H261.976L268.093 63.0179C268.556 64.0903 268.993 64.8317 269.403 65.2288C269.814 65.626 270.396 65.8643 271.151 65.9437V66.4998C270.82 66.5925 270.449 66.6322 270.039 66.6322C269.152 66.6322 268.265 66.3806 267.404 65.8908H267.417ZM257.263 60.0921H264.068L260.732 52.0295L257.263 60.0921Z" fill="#0C0421"/>
<path d="M67.9446 38.2742C65.9587 36.9767 64.4892 35.2159 63.4963 32.9918C62.5166 30.7676 62.0267 28.2787 62.0267 25.5117C62.0267 22.7447 62.5166 20.2558 63.4963 18.0316C64.476 15.8075 65.9587 14.0467 67.9446 12.7492C69.9305 11.4518 72.3532 10.8031 75.2393 10.8031C79.6479 10.8031 82.5473 11.5048 83.9506 12.9081C84.6258 13.5833 85.0495 14.4174 85.2083 15.3971C85.3672 16.3767 85.4466 18.1508 85.4466 20.7059H84.2419C84.083 18.2302 83.3019 16.3503 81.8986 15.0926C80.4952 13.8348 78.6815 13.1994 76.4308 13.1994C73.5447 13.1994 71.3735 14.3379 69.9172 16.6283C68.4609 18.9054 67.7195 21.871 67.7195 25.5117C67.7195 29.1524 68.4477 32.118 69.9172 34.3951C71.3735 36.6722 73.5447 37.8108 76.4308 37.8108C78.4696 37.8108 80.151 37.4269 81.4749 36.6457C82.7988 35.8646 84.0168 34.6599 85.1421 33.0182L86.3469 33.9185C85.023 36.1559 83.4608 37.7711 81.6603 38.7508C79.8598 39.7304 77.715 40.2203 75.2393 40.2203C72.3532 40.2203 69.9305 39.5716 67.9446 38.2742Z" fill="#0C0421"/>
<path d="M95.4686 39.4127C94.1447 38.8699 93.0194 37.9829 92.0794 36.7384C91.1394 35.4939 90.6628 33.8523 90.6628 31.8135C90.6628 28.7685 92.0794 26.6105 94.8993 25.3263C97.7193 24.0421 101.413 23.4067 105.98 23.4067H107.781C107.781 19.4879 107.238 16.8004 106.166 15.3573C105.08 13.9143 103.518 13.1994 101.479 13.1994C99.6786 13.1994 98.2356 13.5833 97.15 14.3379C96.0644 15.0925 95.3098 16.4164 94.8729 18.2964H92.1721C92.1721 16.9328 92.2515 15.8604 92.4104 15.0793C92.5693 14.2982 92.9929 13.5701 93.6681 12.8816C94.383 12.1667 95.5745 11.6371 97.2427 11.2929C98.8975 10.9487 100.711 10.7766 102.671 10.7766C105.914 10.7766 108.469 11.6504 110.363 13.3847C112.243 15.1323 113.182 18.4553 113.182 23.3802V39.5848H110.177L108.072 36.884H107.768C107.053 37.8108 105.98 38.5919 104.59 39.2273C103.187 39.8628 101.453 40.1938 99.3609 40.1938C98.0767 40.1938 96.7793 39.929 95.4554 39.3862L95.4686 39.4127ZM105.371 36.5663C106.245 35.9308 107.053 35.0438 107.768 33.9185V25.8162H105.967C103.002 25.8162 100.658 26.3722 98.9373 27.4711C97.2162 28.5699 96.3556 30.0262 96.3556 31.8267C96.3556 33.6272 96.9117 35.0835 98.0105 36.0632C99.1094 37.0429 100.46 37.5327 102.062 37.5327C103.386 37.5327 104.484 37.215 105.358 36.5663H105.371Z" fill="#0C0421"/>
<path d="M121.775 7.20205C121.775 5.16323 121.497 3.65398 120.941 2.67429C120.384 1.6946 119.259 1.20475 117.578 1.20475H116.373V0H121.775C123.257 0 124.369 0.185347 125.111 0.56928C125.852 0.953212 126.382 1.64164 126.7 2.63457C127.017 3.64074 127.176 5.14999 127.176 7.20205V39.6245H121.775V7.20205Z" fill="#0C0421"/>
<path d="M136.96 18.6141C136.96 16.5753 136.682 15.066 136.126 14.0863C135.57 13.1066 134.444 12.6168 132.763 12.6168H131.558V11.412H136.96C138.443 11.412 139.568 11.6106 140.349 12.0078C141.13 12.405 141.699 13.014 142.057 13.8083H142.361C143.195 12.9742 144.294 12.2593 145.631 11.6768C146.969 11.0943 148.478 10.803 150.159 10.803C151.841 10.803 153.284 11.1075 154.488 11.7298C155.693 12.352 156.646 13.4376 157.375 14.9998C158.42 13.6759 159.744 12.6433 161.373 11.9019C162.988 11.1605 164.669 10.7898 166.39 10.7898C168.945 10.7898 170.998 11.5974 172.52 13.1861C174.042 14.788 174.797 17.5947 174.797 21.5929V39.6112H174.744C171.792 39.6112 169.396 37.215 169.396 34.2627V21.5929C169.396 18.7068 168.998 16.6415 168.191 15.3837C167.383 14.126 166.192 13.4906 164.59 13.4906C163.464 13.4906 162.286 13.901 161.042 14.7218C159.797 15.5426 158.884 16.4296 158.275 17.3961C158.473 17.9918 158.579 19.3952 158.579 21.5929V39.6112H158.526C155.574 39.6112 153.178 37.215 153.178 34.2627V21.5929C153.178 18.7068 152.781 16.6415 151.973 15.3837C151.179 14.126 149.974 13.4906 148.372 13.4906C146.254 13.4906 144.255 14.5497 142.375 16.6679V39.6245H142.322C139.369 39.6245 136.973 37.2282 136.973 34.2759V18.6141H136.96Z" fill="#0C0421"/>
<path d="M186.011 39.4127C184.687 38.8699 183.561 37.9829 182.621 36.7384C181.681 35.4939 181.205 33.8523 181.205 31.8135C181.205 28.7685 182.621 26.6105 185.441 25.3263C188.261 24.0421 191.955 23.4067 196.522 23.4067H198.323C198.323 19.4879 197.78 16.8004 196.708 15.3573C195.635 13.9143 194.06 13.1994 192.021 13.1994C190.221 13.1994 188.778 13.5833 187.692 14.3379C186.606 15.0925 185.852 16.4164 185.415 18.2964H182.714C182.714 16.9328 182.794 15.8604 182.952 15.0793C183.111 14.2982 183.535 13.5701 184.21 12.8816C184.925 12.1667 186.117 11.6371 187.785 11.2929C189.44 10.9487 191.253 10.7766 193.213 10.7766C196.456 10.7766 199.011 11.6504 200.905 13.3847C202.785 15.1323 203.724 18.4553 203.724 23.3802V39.5848H200.719L198.614 36.884H198.31C197.595 37.8108 196.522 38.5919 195.132 39.2273C193.729 39.8628 191.995 40.1938 189.903 40.1938C188.619 40.1938 187.321 39.929 185.997 39.3862L186.011 39.4127ZM195.913 36.5663C196.787 35.9308 197.595 35.0438 198.31 33.9185V25.8162H196.509C193.544 25.8162 191.2 26.3722 189.479 27.4711C187.758 28.5699 186.898 30.0262 186.898 31.8267C186.898 33.6272 187.454 35.0835 188.553 36.0632C189.651 37.0429 191.002 37.5327 192.604 37.5327C193.928 37.5327 195.026 37.215 195.9 36.5663H195.913Z" fill="#0C0421"/>
<path d="M212.555 18.6141C212.555 16.5753 212.277 15.0661 211.721 14.0864C211.165 13.1067 210.039 12.6169 208.358 12.6169H207.762V11.4121H212.568C214.091 11.4121 215.242 11.6239 216.024 12.0476C216.805 12.4712 217.347 13.1597 217.678 14.1129H217.983C218.698 13.1861 219.677 12.4183 220.895 11.7696C222.113 11.1341 223.543 10.8031 225.185 10.8031C226.827 10.8031 227.992 11.1076 228.786 11.7034C229.461 12.2197 230.163 13.1199 230.891 14.4041L228.495 16.2046C228.058 15.6089 227.409 15.1588 226.575 14.8543C225.741 14.5498 224.775 14.4041 223.689 14.4041C222.484 14.4041 221.385 14.6689 220.392 15.2117C219.386 15.7545 218.592 16.4827 217.996 17.4094V39.6245C215.017 39.6245 212.595 37.2018 212.595 34.223V18.6141H212.555Z" fill="#0C0421"/>
<path d="M236.809 18.6141C236.809 16.5753 236.531 15.066 235.975 14.0863C235.419 13.1067 234.293 12.6168 232.612 12.6168H231.407V11.4121H236.809C238.292 11.4121 239.404 11.5974 240.145 11.9813C240.886 12.3653 241.416 13.0537 241.734 14.0466C242.051 15.0528 242.21 16.562 242.21 18.6141V39.6245C239.232 39.6245 236.809 37.2017 236.809 34.223V18.6141ZM236.716 6.65923C236.054 5.9046 235.723 5.00434 235.723 3.95846C235.723 3.1244 235.975 2.46245 236.478 1.9726C236.981 1.49599 237.643 1.25769 238.49 1.25769C239.404 1.25769 240.198 1.64162 240.86 2.39625C241.522 3.15088 241.853 4.05113 241.853 5.09702C241.853 5.93108 241.601 6.59303 241.098 7.08288C240.595 7.55948 239.933 7.79779 239.086 7.79779C238.159 7.79779 237.378 7.41385 236.716 6.65923Z" fill="#0C0421"/>
<path d="M253.503 39.4127C252.179 38.8699 251.054 37.9829 250.114 36.7384C249.174 35.4939 248.698 33.8523 248.698 31.8135C248.698 28.7685 250.114 26.6105 252.934 25.3263C255.754 24.0421 259.448 23.4067 264.015 23.4067H265.816C265.816 19.4879 265.273 16.8004 264.2 15.3573C263.115 13.9143 261.566 13.1994 259.514 13.1994C257.713 13.1994 256.27 13.5833 255.198 14.3379C254.112 15.0925 253.358 16.4164 252.921 18.2964H250.22C250.22 16.9328 250.299 15.8604 250.458 15.0793C250.617 14.2982 251.041 13.5701 251.716 12.8816C252.431 12.1667 253.622 11.6371 255.291 11.2929C256.945 10.9487 258.759 10.7766 260.719 10.7766C263.962 10.7766 266.517 11.6504 268.397 13.3847C270.277 15.1323 271.217 18.4553 271.217 23.3802V39.5848H268.212L266.107 36.884H265.802C265.087 37.8108 264.015 38.5919 262.625 39.2273C261.222 39.8628 259.487 40.1938 257.396 40.1938C256.111 40.1938 254.814 39.929 253.49 39.3862L253.503 39.4127ZM263.406 36.5663C264.293 35.9308 265.087 35.0438 265.802 33.9185V25.8162H264.002C261.036 25.8162 258.693 26.3722 256.972 27.4711C255.251 28.5699 254.39 30.0262 254.39 31.8267C254.39 33.6272 254.946 35.0835 256.045 36.0632C257.144 37.0429 258.494 37.5327 260.096 37.5327C261.42 37.5327 262.519 37.215 263.393 36.5663H263.406Z" fill="#0C0421"/>
<path d="M99.1227 56.4383C96.2366 56.4383 93.5358 55.3129 91.497 53.2741L91.0866 52.8637C88.9816 50.7587 86.2014 49.6069 83.2358 49.6069H40.6325C40.5531 48.7596 39.8382 48.0977 38.9644 48.0977C38.0377 48.0977 37.2963 48.8523 37.2963 49.7658C37.2963 50.6793 38.0509 51.4339 38.9644 51.4339C39.8382 51.4339 40.5531 50.7719 40.6325 49.9246H83.2226C86.1087 49.9246 88.8095 51.05 90.8483 53.0888L91.2587 53.4992C93.3637 55.6042 96.1439 56.756 99.1094 56.756H210.98V56.4383H99.1227Z" fill="#0C0421"/>
<path d="M211.324 57.087H99.1226C96.0644 57.087 93.1915 55.8955 91.0335 53.7375L90.6231 53.3271C88.6505 51.3545 86.0159 50.2689 83.2357 50.2689H40.9104C40.6854 51.1559 39.9043 51.7781 38.9643 51.7781C37.8655 51.7781 36.9652 50.8778 36.9652 49.779C36.9652 48.6802 37.8655 47.7799 38.9643 47.7799C39.9043 47.7799 40.6854 48.4154 40.9104 49.2892H83.2225C86.2807 49.2892 89.1536 50.4807 91.3115 52.6386L91.722 53.0491C93.6946 55.0217 96.3292 56.1073 99.1094 56.1073H211.31V57.1002L211.324 57.087ZM38.9775 48.4286C38.2362 48.4286 37.6404 49.0376 37.6404 49.7658C37.6404 50.4939 38.2494 51.1029 38.9775 51.1029C39.6792 51.1029 40.2485 50.5866 40.3147 49.8849V49.6201C40.2485 48.9317 39.6792 48.4021 38.9775 48.4021V48.4286Z" fill="#0C0421"/>
</svg>
