<svg width="16" height="12" viewBox="0 0 16 12" fill="none" xmlns="http://www.w3.org/2000/svg">
<g id="Camera">
<path fill-rule="evenodd" clip-rule="evenodd" d="M15.6384 2.07395C15.8604 2.18822 16 2.41701 16 2.66673V9.3334C16 9.58312 15.8604 9.8119 15.6384 9.92618C15.4163 10.0404 15.149 10.021 14.9458 9.87589L10.2792 6.54255C10.104 6.41741 10 6.21536 10 6.00006C10 5.78476 10.104 5.58272 10.2792 5.45757L14.9458 2.12424C15.149 1.97909 15.4163 1.95968 15.6384 2.07395ZM11.8136 6.00006L14.6667 8.03794V3.96219L11.8136 6.00006Z" fill="#A3A3A3"/>
<path fill-rule="evenodd" clip-rule="evenodd" d="M2 2.00008C1.63181 2.00008 1.33333 2.29856 1.33333 2.66675V9.33341C1.33333 9.7016 1.63181 10.0001 2 10.0001H9.33333C9.70152 10.0001 10 9.7016 10 9.33341V2.66675C10 2.29856 9.70152 2.00008 9.33333 2.00008H2ZM0 2.66675C0 1.56218 0.89543 0.666748 2 0.666748H9.33333C10.4379 0.666748 11.3333 1.56218 11.3333 2.66675V9.33341C11.3333 10.438 10.4379 11.3334 9.33333 11.3334H2C0.89543 11.3334 0 10.438 0 9.33341V2.66675Z" fill="#A3A3A3"/>
</g>
</svg>
