<svg width="32" height="32" viewBox="0 0 32 32" fill="none" xmlns="http://www.w3.org/2000/svg">
<g id="Chatcirculo1">
<circle id="Ellipse 5" cx="16" cy="16" r="16" fill="#F6F6F6"/>
<path id="chat1" fill-rule="evenodd" clip-rule="evenodd" d="M11.3333 10.6667C11.1564 10.6667 10.9869 10.7369 10.8618 10.862C10.7368 10.987 10.6666 11.1566 10.6666 11.3334V20.3906L12.1952 18.862C12.3202 18.7369 12.4898 18.6667 12.6666 18.6667H20.6666C20.8434 18.6667 21.013 18.5965 21.138 18.4714C21.263 18.3464 21.3333 18.1769 21.3333 18V11.3334C21.3333 11.1566 21.263 10.987 21.138 10.862C21.013 10.7369 20.8434 10.6667 20.6666 10.6667H11.3333ZM9.91904 9.91916C10.2941 9.54409 10.8028 9.33337 11.3333 9.33337H20.6666C21.197 9.33337 21.7057 9.54409 22.0808 9.91916C22.4559 10.2942 22.6666 10.8029 22.6666 11.3334V18C22.6666 18.5305 22.4559 19.0392 22.0808 19.4143C21.7057 19.7893 21.197 20 20.6666 20H12.9427L10.4713 22.4714C10.2807 22.6621 9.99391 22.7191 9.7448 22.616C9.49568 22.5128 9.33325 22.2697 9.33325 22V11.3334C9.33325 10.8029 9.54397 10.2942 9.91904 9.91916Z" fill="#4894FF"/>
</g>
</svg>
