<svg width="88" height="88" viewBox="0 0 88 88" fill="none" xmlns="http://www.w3.org/2000/svg">
<rect width="88" height="88" fill="#E5E5E5"/>
<g id="Home - Mobile - Dia 2" clip-path="url(#clip0_6_622)">
<rect width="360" height="2402" transform="translate(-271 -578)" fill="url(#paint0_linear_6_622)"/>
<rect id="fundotodosbrancoopct" opacity="0.3" x="-271" y="-392" width="360" height="566" fill="white"/>
<g id="Card3">
<g id="Rectangle 118" filter="url(#filter0_b_6_622)">
<rect x="-255" y="-20" width="328" height="170" rx="8" fill="white"/>
</g>
<g id="Botao2 simples">
<rect id="Rectangle 121" x="-83.5" y="86.5" width="138" height="47" rx="7.5" fill="white" stroke="#ECECEC"/>
</g>
<g id="Chatcirculo3">
<circle id="232323" cx="41" cy="12" r="16" fill="#F6F6F6"/>
<path id="chat3" fill-rule="evenodd" clip-rule="evenodd" d="M36.3333 6.66671C36.1564 6.66671 35.9869 6.73695 35.8618 6.86197C35.7368 6.98699 35.6666 7.15656 35.6666 7.33337V16.3906L37.1952 14.862C37.3202 14.7369 37.4898 14.6667 37.6666 14.6667H45.6666C45.8434 14.6667 46.013 14.5965 46.138 14.4714C46.263 14.3464 46.3333 14.1769 46.3333 14V7.33337C46.3333 7.15656 46.263 6.98699 46.138 6.86197C46.013 6.73695 45.8434 6.66671 45.6666 6.66671H36.3333ZM34.919 5.91916C35.2941 5.54409 35.8028 5.33337 36.3333 5.33337H45.6666C46.197 5.33337 46.7057 5.54409 47.0808 5.91916C47.4559 6.29423 47.6666 6.80294 47.6666 7.33337V14C47.6666 14.5305 47.4559 15.0392 47.0808 15.4143C46.7057 15.7893 46.197 16 45.6666 16H37.9427L35.4713 18.4714C35.2807 18.6621 34.9939 18.7191 34.7448 18.616C34.4957 18.5128 34.3333 18.2697 34.3333 18V7.33337C34.3333 6.80294 34.544 6.29423 34.919 5.91916Z" fill="#4894FF"/>
</g>
<rect id="Rectangle 122" opacity="0.1" x="-255" y="49" width="328" height="1" fill="#464646"/>
</g>
<g id="Menu rodap&#195;&#169;">
<g id="Rectangle 81" filter="url(#filter1_d_6_622)">
<path d="M-271 98C-271 91.3726 -265.627 86 -259 86H77C83.6274 86 89 91.3726 89 98V144H-271V98Z" fill="white"/>
</g>
</g>
<g id="Bot&#195;&#163;o flutuante" filter="url(#filter2_d_6_622)">
<g id="Ellipse 2" filter="url(#filter3_d_6_622)">
<circle cx="44" cy="40" r="28" fill="#4894FF"/>
</g>
<g id="maisicone">
<path id="maisstroke1" fill-rule="evenodd" clip-rule="evenodd" d="M44 32C44.5523 32 45 32.4477 45 33V47C45 47.5523 44.5523 48 44 48C43.4477 48 43 47.5523 43 47V33C43 32.4477 43.4477 32 44 32Z" fill="white"/>
<path id="maisstroke2" fill-rule="evenodd" clip-rule="evenodd" d="M36 40C36 39.4477 36.4477 39 37 39H51C51.5523 39 52 39.4477 52 40C52 40.5523 51.5523 41 51 41H37C36.4477 41 36 40.5523 36 40Z" fill="white"/>
</g>
</g>
</g>
<defs>
<filter id="filter0_b_6_622" x="-277" y="-42" width="372" height="214" filterUnits="userSpaceOnUse" color-interpolation-filters="sRGB">
<feFlood flood-opacity="0" result="BackgroundImageFix"/>
<feGaussianBlur in="BackgroundImageFix" stdDeviation="11"/>
<feComposite in2="SourceAlpha" operator="in" result="effect1_backgroundBlur_6_622"/>
<feBlend mode="normal" in="SourceGraphic" in2="effect1_backgroundBlur_6_622" result="shape"/>
</filter>
<filter id="filter1_d_6_622" x="-279" y="74" width="376" height="74" filterUnits="userSpaceOnUse" color-interpolation-filters="sRGB">
<feFlood flood-opacity="0" result="BackgroundImageFix"/>
<feColorMatrix in="SourceAlpha" type="matrix" values="0 0 0 0 0 0 0 0 0 0 0 0 0 0 0 0 0 0 127 0" result="hardAlpha"/>
<feOffset dy="-4"/>
<feGaussianBlur stdDeviation="4"/>
<feColorMatrix type="matrix" values="0 0 0 0 0 0 0 0 0 0 0 0 0 0 0 0 0 0 0.06 0"/>
<feBlend mode="normal" in2="BackgroundImageFix" result="effect1_dropShadow_6_622"/>
<feBlend mode="normal" in="SourceGraphic" in2="effect1_dropShadow_6_622" result="shape"/>
</filter>
<filter id="filter2_d_6_622" x="0" y="0" width="88" height="88" filterUnits="userSpaceOnUse" color-interpolation-filters="sRGB">
<feFlood flood-opacity="0" result="BackgroundImageFix"/>
<feColorMatrix in="SourceAlpha" type="matrix" values="0 0 0 0 0 0 0 0 0 0 0 0 0 0 0 0 0 0 127 0" result="hardAlpha"/>
<feOffset dy="4"/>
<feGaussianBlur stdDeviation="8"/>
<feColorMatrix type="matrix" values="0 0 0 0 0.282353 0 0 0 0 0.580392 0 0 0 0 1 0 0 0 0.5 0"/>
<feBlend mode="normal" in2="BackgroundImageFix" result="effect1_dropShadow_6_622"/>
<feBlend mode="normal" in="SourceGraphic" in2="effect1_dropShadow_6_622" result="shape"/>
</filter>
<filter id="filter3_d_6_622" x="12" y="12" width="64" height="64" filterUnits="userSpaceOnUse" color-interpolation-filters="sRGB">
<feFlood flood-opacity="0" result="BackgroundImageFix"/>
<feColorMatrix in="SourceAlpha" type="matrix" values="0 0 0 0 0 0 0 0 0 0 0 0 0 0 0 0 0 0 127 0" result="hardAlpha"/>
<feOffset dy="4"/>
<feGaussianBlur stdDeviation="2"/>
<feColorMatrix type="matrix" values="0 0 0 0 1 0 0 0 0 0.594833 0 0 0 0 0.220833 0 0 0 0.06 0"/>
<feBlend mode="normal" in2="BackgroundImageFix" result="effect1_dropShadow_6_622"/>
<feBlend mode="normal" in="SourceGraphic" in2="effect1_dropShadow_6_622" result="shape"/>
</filter>
<linearGradient id="paint0_linear_6_622" x1="0" y1="0" x2="1324.11" y2="793.806" gradientUnits="userSpaceOnUse">
<stop stop-color="#F8F4FF"/>
<stop offset="1" stop-color="#EFF0F4"/>
</linearGradient>
<clipPath id="clip0_6_622">
<rect width="360" height="2402" fill="white" transform="translate(-271 -578)"/>
</clipPath>
</defs>
</svg>
