<svg width="169" height="300" viewBox="0 0 169 300" fill="none" xmlns="http://www.w3.org/2000/svg">
<path d="M146.696 87.6888H143.095V41.1158L146.696 41.1158V87.6888ZM146.696 7.36426H143.095V44.3085L146.696 44.3085V7.41494V7.36426ZM144.87 0.776123C142.182 0.776123 140.051 2.95528 140.051 5.59053C140.051 8.22578 142.232 10.4049 144.87 10.4049C147.508 10.4049 149.689 8.22578 149.689 5.59053C149.689 2.95528 147.508 0.776123 144.87 0.776123ZM164.856 12.8375L161.711 11.0131L143.247 42.9909L146.392 44.8153L164.856 12.8375ZM166.58 6.24934C164.298 4.93172 161.305 5.69189 159.986 8.02307C158.667 10.3543 159.428 13.2936 161.761 14.6112C164.095 15.9288 167.037 15.1687 168.356 12.8375C169.674 10.5063 168.914 7.56697 166.58 6.24934ZM146.493 42.9909L128.029 11.0131L124.884 12.8375L143.348 44.8153L146.493 42.9909ZM121.384 12.8375C122.703 15.118 125.645 15.9288 127.979 14.6112C130.312 13.2936 131.073 10.3543 129.754 8.02307C128.435 5.69189 125.493 4.93172 123.16 6.24934C120.826 7.56697 120.066 10.5063 121.384 12.8375ZM146.696 212.914H143.095V259.487H146.696V212.914ZM146.696 256.294H143.095V293.239H146.696V256.294ZM144.87 299.776C147.558 299.776 149.689 297.597 149.689 294.962C149.689 292.326 147.508 290.147 144.87 290.147C142.232 290.147 140.051 292.326 140.051 294.962C140.051 297.597 142.232 299.776 144.87 299.776ZM146.493 257.561L143.348 255.737L124.884 287.715L128.029 289.539L146.493 257.561ZM123.16 294.303C125.442 295.621 128.435 294.86 129.754 292.529C131.073 290.198 130.312 287.259 127.979 285.941C125.645 284.623 122.703 285.384 121.384 287.715C120.066 290.046 120.826 292.985 123.16 294.303ZM164.856 287.715L146.392 255.737L143.247 257.561L161.711 289.539L164.856 287.715ZM168.356 287.715C167.037 285.434 164.095 284.623 161.761 285.941C159.428 287.259 158.667 290.198 159.986 292.529C161.305 294.86 164.247 295.621 166.58 294.303C168.914 292.985 169.674 290.046 168.356 287.715ZM124.58 93.3648L106.725 50.3392L103.377 51.7075L121.232 94.7331L124.58 93.3648ZM107.942 53.2785L93.7901 19.1722L90.4423 20.5405L104.595 54.6468L107.942 53.2785ZM89.6307 13.8004C87.1452 14.8139 85.9785 17.6519 87.0437 20.0844C88.1089 22.517 90.8988 23.7332 93.3336 22.669C95.7684 21.6048 96.9858 18.8175 95.9206 16.3849C94.8553 13.9524 92.0655 12.7361 89.6307 13.8004ZM112.71 17.2971L109.109 16.841L104.29 53.4305L107.892 53.8866L112.71 17.2971ZM111.797 10.557C109.16 10.2022 106.725 12.0773 106.37 14.7126C106.015 17.3478 107.892 19.7804 110.529 20.1351C113.167 20.4899 115.602 18.6148 115.957 15.9795C116.312 13.3443 114.435 10.9117 111.797 10.557ZM107.283 52.2143L77.964 29.7132L75.7828 32.6019L105.102 55.1029L107.283 52.2143ZM72.5364 33.9195C74.6669 35.5412 77.6596 35.1358 79.2828 33.0073C80.906 30.8788 80.5002 27.8888 78.3698 26.2671C76.2393 24.6454 73.2466 25.0509 71.6234 27.1793C70.0002 29.3078 70.406 32.2978 72.5364 33.9195ZM104.493 107.504L71.5219 74.5632L68.9857 77.0971L101.957 110.038L104.493 107.504ZM73.8046 76.8438L47.6813 50.7446L45.1451 53.2785L71.2683 79.3777L73.8046 76.8438ZM41.7465 47.3492C39.8697 49.2243 39.8697 52.2649 41.7465 54.1907C43.6233 56.1165 46.6668 56.0658 48.5943 54.1907C50.5219 52.3156 50.4712 49.2749 48.5943 47.3492C46.7175 45.4234 43.674 45.4741 41.7465 47.3492ZM74.0075 77.4012L64.4205 41.7239L60.9205 42.6868L70.5075 78.3641L74.0075 77.4012ZM60.9712 35.8453C58.3842 36.5548 56.8625 39.19 57.5726 41.7746C58.2828 44.3592 60.9205 45.8795 63.5074 45.17C66.0944 44.4605 67.6161 41.8253 66.906 39.2407C66.1958 36.6561 63.5582 35.1358 60.9712 35.8453ZM72.7901 76.0329L37.0798 66.4548L36.116 69.9516L71.8263 79.5297L72.7901 76.0329ZM33.6813 72.4348C36.2682 73.1443 38.9059 71.5732 39.6161 69.0393C40.3262 66.5054 38.7537 63.8195 36.2175 63.11C33.6813 62.4005 30.9928 63.9715 30.2827 66.5054C29.5725 69.0393 31.145 71.7253 33.6813 72.4348ZM94.0438 126.762L50.9784 108.923L49.6088 112.268L92.6742 130.106L94.0438 126.762ZM53.9204 110.139L19.7827 96L18.4131 99.3448L52.5509 113.484L53.9204 110.139ZM12.9855 95.1385C11.971 97.6217 13.1377 100.409 15.5725 101.423C18.0073 102.436 20.8479 101.271 21.8624 98.838C22.8769 96.4054 21.7102 93.5675 19.2754 92.5539C16.8406 91.5404 14 92.706 12.9855 95.1385ZM54.2755 110.595L31.7537 81.3034L28.8624 83.4826L51.3842 112.774L54.2755 110.595ZM26.3262 77.1985C24.1957 78.8202 23.7899 81.8609 25.4131 83.9387C27.0363 86.0165 30.0798 86.4726 32.1595 84.8509C34.2392 83.2292 34.6958 80.1885 33.0726 78.1107C31.4494 76.0329 28.4059 75.5768 26.3262 77.1985ZM53.1088 113.383L52.6523 109.784L16.029 114.599L16.4856 118.197L53.1088 113.383ZM15.116 121.44C17.7537 121.086 19.6305 118.653 19.2754 116.018C18.9203 113.383 16.4856 111.507 13.8479 111.862C11.2102 112.217 9.33336 114.65 9.68843 117.285C10.0435 119.92 12.4783 121.795 15.116 121.44ZM86.9423 148.553H40.3769V152.151H86.993V148.553H86.9423ZM43.5219 148.553H6.64495L6.64495 152.151H43.6233V148.553H43.5219ZM0 150.377C0 153.063 2.18117 155.192 4.81885 155.192C7.45654 155.192 9.63771 153.013 9.63771 150.377C9.63771 147.692 7.45654 145.563 4.81885 145.563C2.18117 145.563 0.0507248 147.641 0.0507248 150.327L0 150.377ZM44.0798 148.857L12.0725 130.41L10.2464 133.552L42.2537 151.999L44.0798 148.857ZM5.47828 128.687C4.15943 130.968 4.9203 133.958 7.25364 135.275C9.58698 136.593 12.529 135.833 13.8479 133.502C15.1667 131.171 14.4058 128.231 12.0725 126.914C9.73916 125.596 6.79712 126.356 5.47828 128.687ZM44.0798 151.898L42.2537 148.756L10.2464 167.203L12.0725 170.345L44.0798 151.898ZM12.0725 173.841C14.3551 172.524 15.1667 169.584 13.8479 167.253C12.529 164.922 9.58698 164.162 7.25364 165.48C4.9203 166.797 4.15943 169.736 5.47828 172.068C6.79712 174.399 9.73916 175.159 12.0725 173.841ZM93.993 173.993L92.6235 170.649L49.5581 188.487L50.9277 191.832L93.993 173.993ZM53.8697 190.616L52.5002 187.271L18.3624 201.41L19.7319 204.755L53.8697 190.616ZM12.9348 205.566C13.9493 208.049 16.7899 209.215 19.2247 208.15C21.6595 207.086 22.8769 204.299 21.8117 201.866C20.7464 199.434 17.9566 198.217 15.5218 199.282C13.087 200.346 11.8696 203.133 12.9348 205.566ZM53.0581 187.322L16.4348 182.507L15.9783 186.105L52.6016 190.92L53.0581 187.322ZM9.63771 183.42C9.28264 186.055 11.1595 188.487 13.7971 188.842C16.4348 189.197 18.8696 187.322 19.2247 184.686C19.5798 182.051 17.7029 179.619 15.0653 179.264C12.4276 178.909 9.99278 180.784 9.63771 183.42ZM54.1741 190.109L51.2828 187.93L28.761 217.222L31.6523 219.401L54.1741 190.109ZM33.0218 222.644C34.645 220.516 34.2392 217.526 32.1088 215.904C29.9783 214.282 26.9856 214.688 25.3624 216.816C23.7392 218.945 24.145 221.935 26.2754 223.556C28.4059 225.178 31.3986 224.773 33.0218 222.644ZM104.392 193.251L101.855 190.717L68.8843 223.658L71.4205 226.192L104.392 193.251ZM73.7031 223.911L71.1669 221.377L45.0436 247.476L47.5798 250.01L73.7031 223.911ZM41.645 253.406C43.5219 255.281 46.5654 255.281 48.4929 253.406C50.4204 251.531 50.3697 248.49 48.4929 246.564C46.6161 244.639 43.5726 244.689 41.645 246.564C39.7175 248.439 39.7682 251.48 41.645 253.406ZM72.6886 224.671L71.7248 221.175L36.0146 230.753L36.9784 234.25L72.6886 224.671ZM30.1812 234.199C30.8914 236.783 33.5291 238.304 36.116 237.594C38.703 236.885 40.2248 234.25 39.5146 231.665C38.8045 229.08 36.1668 227.56 33.5798 228.27C30.9928 228.979 29.4711 231.614 30.1812 234.199ZM73.906 223.354L70.406 222.391L60.819 258.068L64.319 259.031L73.906 223.354ZM66.8045 261.464C67.5147 258.879 65.9422 256.244 63.406 255.534C60.8697 254.825 58.1813 256.396 57.4712 258.93C56.761 261.464 58.3335 264.15 60.8697 264.859C63.406 265.568 66.0944 263.997 66.8045 261.464ZM124.479 207.34L121.131 205.971L103.276 248.997L106.623 250.365L124.479 207.34ZM107.841 247.426L104.493 246.057L90.3408 280.164L93.6887 281.532L107.841 247.426ZM89.5292 286.904C92.0148 287.917 94.8046 286.752 95.8191 284.319C96.8336 281.887 95.6669 279.049 93.2322 278.035C90.7974 277.022 87.9568 278.187 86.9423 280.62C85.9278 283.052 87.0945 285.89 89.5292 286.904ZM107.181 248.49L105 245.601L75.6814 268.102L77.8625 270.991L107.181 248.49ZM71.5727 273.525C73.1959 275.653 76.2394 276.059 78.3191 274.437C80.3988 272.815 80.8553 269.775 79.2321 267.697C77.6089 265.619 74.5654 265.163 72.4857 266.785C70.406 268.406 69.9495 271.447 71.5727 273.525ZM112.609 283.407L107.79 246.818L104.189 247.274L109.008 283.863L112.609 283.407ZM115.805 284.725C115.45 282.09 113.015 280.214 110.377 280.569C107.739 280.924 105.863 283.356 106.218 285.992C106.573 288.627 109.008 290.502 111.645 290.147C114.283 289.793 116.16 287.36 115.805 284.725Z" fill="url(#paint0_linear_111_2421)" fill-opacity="0.8"/>
<defs>
<linearGradient id="paint0_linear_111_2421" x1="84.5" y1="0.776123" x2="84.5" y2="299.776" gradientUnits="userSpaceOnUse">
<stop stop-color="#E0EFD0" stop-opacity="0.2"/>
<stop offset="1" stop-color="#4E75FF"/>
</linearGradient>
</defs>
</svg>
