<svg width="18" height="18" viewBox="0 0 18 18" fill="none" xmlns="http://www.w3.org/2000/svg">
<path d="M3.82812 9.70312C4.70312 10.5781 5.76562 11.0156 7.01562 11.0156C8.26562 11.0156 9.32812 10.5781 10.2031 9.70312C11.0781 8.82812 11.5156 7.76562 11.5156 6.51562C11.5156 5.26562 11.0781 4.20313 10.2031 3.32812C9.32812 2.45312 8.26562 2.01562 7.01562 2.01562C5.76562 2.01562 4.70312 2.45312 3.82812 3.32812C2.95312 4.20313 2.51562 5.26562 2.51562 6.51562C2.51562 7.76562 2.95312 8.82812 3.82812 9.70312ZM13.0156 11.0156L17.9844 15.9844L16.4844 17.4844L11.5156 12.5156V11.7188L11.2344 11.4375C10.0469 12.4688 8.64062 12.9844 7.01562 12.9844C5.20312 12.9844 3.65625 12.3594 2.375 11.1094C1.125 9.85938 0.5 8.32812 0.5 6.51562C0.5 4.70312 1.125 3.17188 2.375 1.92188C3.65625 0.640625 5.20312 0 7.01562 0C8.82812 0 10.3594 0.640625 11.6094 1.92188C12.8594 3.17188 13.4844 4.70312 13.4844 6.51562C13.4844 7.17188 13.3281 7.92188 13.0156 8.76562C12.7031 9.57812 12.3438 10.2344 11.9375 10.7344L12.2188 11.0156H13.0156Z" fill="white"/>
</svg>
