<svg width="27" height="28" viewBox="0 0 27 28" fill="none" xmlns="http://www.w3.org/2000/svg">
<path d="M19.125 22L17.625 15.5625L22.625 11.25L16.0625 10.6875L13.5 4.6875L10.9375 10.75L4.375 11.25L9.375 15.5625L7.875 22L13.5 18.625L19.125 22ZM4.0625 4.625C6.6875 2 9.83333 0.6875 13.5 0.6875C17.1667 0.6875 20.2917 2 22.875 4.625C25.5 7.20833 26.8125 10.3333 26.8125 14C26.8125 17.6667 25.5 20.8125 22.875 23.4375C20.2917 26.0208 17.1667 27.3125 13.5 27.3125C9.83333 27.3125 6.6875 26.0208 4.0625 23.4375C1.47917 20.8125 0.1875 17.6667 0.1875 14C0.1875 10.3333 1.47917 7.20833 4.0625 4.625Z" fill="white"/>
</svg>
