<svg width="267" height="56" viewBox="0 0 267 56" fill="none" xmlns="http://www.w3.org/2000/svg">
<g style="mix-blend-mode:soft-light" filter="url(#filter0_i_86347_7)">
<path d="M3.36884 0H50.5326L46.2429 50.3137L26.899 56L7.66523 50.3113L3.36884 0ZM19.1597 22.75L18.6387 16.408L41.2301 16.415L41.7466 10.297L12.1548 10.29L13.7224 28.98H34.2184L33.4862 36.974L26.9507 38.85L20.3141 36.96L19.8919 32.0367H14.0323L14.7735 41.769L26.9507 45.1523L39.0314 41.7853L40.7023 22.7523H19.1597V22.75Z" fill="white"/>
<path d="M109.918 0H157.082L152.792 50.3137L133.448 56L114.212 50.3113L109.918 0ZM148.3 10.297L118.7 10.29L119.178 16.408L141.918 16.4127L141.345 22.75H126.432L126.971 28.7537H140.855L140.033 36.974L133.498 38.85L126.859 36.96L126.437 32.0367H120.575L121.226 41.0317L133.5 45.0053L145.567 41.4353L148.3 10.297Z" fill="white"/>
<path d="M213.099 0H267V56H213.099V0ZM262.585 42.644C262.192 40.089 260.59 37.9423 255.84 35.9403C254.187 35.1353 252.35 34.5753 251.804 33.2803C251.6 32.5103 251.568 32.0903 251.701 31.6353C252.038 30.128 253.756 29.6753 255.104 30.0953C255.979 30.3753 256.788 31.0753 257.295 32.1953C259.618 30.618 259.618 30.618 261.237 29.5703C260.631 28.5903 260.33 28.168 259.921 27.7503C258.506 26.1053 256.622 25.2653 253.556 25.3377L251.973 25.5453C250.455 25.9303 249.008 26.7703 248.132 27.8903C245.572 30.9027 246.311 36.1527 249.41 38.3227C252.476 40.7027 256.959 41.2253 257.531 43.4677C258.07 46.1977 255.577 47.0727 253.116 46.7577C251.294 46.3377 250.286 45.3903 249.174 43.6403L245.064 46.0927C245.536 47.2127 246.075 47.7003 246.884 48.6803C250.791 52.7777 260.561 52.5677 262.315 46.3377C262.38 46.1277 262.854 44.6927 262.481 42.4877L262.585 42.644ZM242.41 25.739H237.361C237.361 30.261 237.341 34.755 237.341 39.284C237.341 42.1587 237.482 44.7977 237.031 45.6097C236.29 47.2173 234.381 47.012 233.514 46.7297C232.624 46.2723 232.173 45.6423 231.65 44.7347C231.508 44.4897 231.403 44.2773 231.364 44.2773L227.266 46.9023C227.951 48.3723 228.95 49.637 230.239 50.442C232.159 51.632 234.74 52.017 237.442 51.387C239.2 50.8597 240.716 49.7747 241.509 48.0947C242.655 45.9247 242.412 43.2647 242.401 40.2873C242.428 35.4947 242.401 30.6997 242.401 25.8697L242.41 25.739Z" fill="white"/>
</g>
<defs>
<filter id="filter0_i_86347_7" x="0" y="0" width="267" height="60" filterUnits="userSpaceOnUse" color-interpolation-filters="sRGB">
<feFlood flood-opacity="0" result="BackgroundImageFix"/>
<feBlend mode="normal" in="SourceGraphic" in2="BackgroundImageFix" result="shape"/>
<feColorMatrix in="SourceAlpha" type="matrix" values="0 0 0 0 0 0 0 0 0 0 0 0 0 0 0 0 0 0 127 0" result="hardAlpha"/>
<feOffset dy="4"/>
<feGaussianBlur stdDeviation="2"/>
<feComposite in2="hardAlpha" operator="arithmetic" k2="-1" k3="1"/>
<feColorMatrix type="matrix" values="0 0 0 0 0 0 0 0 0 0 0 0 0 0 0 0 0 0 0.25 0"/>
<feBlend mode="normal" in2="shape" result="effect1_innerShadow_86347_7"/>
</filter>
</defs>
</svg>
