<svg width="25" height="24" viewBox="0 0 25 24" fill="none" xmlns="http://www.w3.org/2000/svg">
<path d="M19.1875 13.3125V10.6875H13.8125V5.3125H11.1875V10.6875H5.8125V13.3125H11.1875V18.6875H13.8125V13.3125H19.1875ZM21.8125 0C22.5208 0 23.1458 0.270833 23.6875 0.8125C24.2292 1.35417 24.5 1.97917 24.5 2.6875V21.3125C24.5 22.0208 24.2292 22.6458 23.6875 23.1875C23.1458 23.7292 22.5208 24 21.8125 24H3.1875C2.4375 24 1.79167 23.75 1.25 23.25C0.75 22.7083 0.5 22.0625 0.5 21.3125V2.6875C0.5 1.9375 0.75 1.3125 1.25 0.8125C1.79167 0.270833 2.4375 0 3.1875 0H21.8125Z" fill="#2BDEFD"/>
</svg>
