<svg width="356" height="108" viewBox="0 0 356 108" fill="none" xmlns="http://www.w3.org/2000/svg">
<g filter="url(#filter0_d_1_82)">
<rect x="4.5" y="20.5" width="174" height="54" rx="15.5" stroke="white"/>
<rect x="172.5" y="20.5" width="179" height="54" rx="15.5" stroke="#EC2F46"/>
<rect x="33" y="15" width="292" height="56" fill="#040814"/>
<rect x="24" y="65" width="308" height="18" fill="#040814"/>
<path d="M77.1424 67.0585H66.414C66.2181 65.6849 65.818 64.4648 65.2138 63.3983C64.6096 62.3156 63.834 61.3945 62.8869 60.635C61.9398 59.8755 60.8457 59.2937 59.6047 58.8897C58.38 58.4857 57.0492 58.2837 55.6122 58.2837C53.0158 58.2837 50.7542 58.9221 48.8274 60.1987C46.9005 61.4591 45.4064 63.3013 44.345 65.7253C43.2836 68.1331 42.7529 71.058 42.7529 74.5C42.7529 78.039 43.2836 81.0124 44.345 83.4202C45.4227 85.8279 46.925 87.6459 48.8519 88.8741C50.7787 90.1022 53.0077 90.7163 55.5387 90.7163C56.9594 90.7163 58.2739 90.5304 59.4822 90.1587C60.7069 89.7871 61.7928 89.2457 62.7399 88.5347C63.687 87.8075 64.4708 86.9268 65.0914 85.8926C65.7282 84.8584 66.1691 83.6787 66.414 82.3536L77.1424 82.4021C76.8648 84.6806 76.1708 86.8783 75.0604 88.9953C73.9663 91.096 72.4885 92.9786 70.627 94.6431C68.7818 96.2913 66.5773 97.6003 64.0136 98.5699C61.4662 99.5233 58.5841 100 55.3673 100C50.893 100 46.8923 98.9981 43.3652 96.9943C39.8544 94.9905 37.0784 92.0898 35.0373 88.2923C33.0124 84.4948 32 79.8973 32 74.5C32 69.0865 33.0287 64.481 35.0862 60.6835C37.1437 56.8859 39.936 53.9933 43.4632 52.0057C46.9903 50.0019 50.9583 49 55.3673 49C58.2739 49 60.9682 49.404 63.4503 50.212C65.9486 51.02 68.1613 52.1996 70.0881 53.7509C72.015 55.2861 73.5826 57.1687 74.791 59.3988C76.0157 61.6288 76.7995 64.182 77.1424 67.0585Z" fill="white"/>
<path d="M128.086 74.5C128.086 79.9135 127.05 84.519 124.976 88.3165C122.918 92.1141 120.11 95.0147 116.55 97.0185C113.006 99.0062 109.022 100 104.597 100C100.139 100 96.1381 98.9981 92.5947 96.9943C89.0512 94.9905 86.2507 92.0898 84.1932 88.2923C82.1357 84.4948 81.107 79.8973 81.107 74.5C81.107 69.0865 82.1357 64.481 84.1932 60.6835C86.2507 56.8859 89.0512 53.9933 92.5947 52.0057C96.1381 50.0019 100.139 49 104.597 49C109.022 49 113.006 50.0019 116.55 52.0057C120.11 53.9933 122.918 56.8859 124.976 60.6835C127.05 64.481 128.086 69.0865 128.086 74.5ZM117.334 74.5C117.334 70.9933 116.803 68.0361 115.741 65.6283C114.696 63.2205 113.219 61.3945 111.308 60.1502C109.398 58.9059 107.16 58.2837 104.597 58.2837C102.033 58.2837 99.7959 58.9059 97.8854 60.1502C95.9748 61.3945 94.4889 63.2205 93.4274 65.6283C92.3824 68.0361 91.8598 70.9933 91.8598 74.5C91.8598 78.0067 92.3824 80.9639 93.4274 83.3717C94.4889 85.7795 95.9748 87.6055 97.8854 88.8498C99.7959 90.0941 102.033 90.7163 104.597 90.7163C107.16 90.7163 109.398 90.0941 111.308 88.8498C113.219 87.6055 114.696 85.7795 115.741 83.3717C116.803 80.9639 117.334 78.0067 117.334 74.5Z" fill="white"/>
<path d="M133.184 49.6787H146.264L160.078 83.0323H160.666L174.481 49.6787H187.56V99.3213H177.273V67.01H176.857L163.875 99.0789H156.87L143.888 66.8888H143.471V99.3213H133.184V49.6787Z" fill="white"/>
<path d="M193.54 99.3213V49.6787H213.625C217.315 49.6787 220.393 50.2201 222.859 51.3028C225.325 52.3855 227.178 53.8883 228.419 55.8113C229.66 57.7182 230.281 59.9159 230.281 62.4045C230.281 64.3436 229.889 66.0485 229.105 67.519C228.321 68.9734 227.243 70.1692 225.872 71.1065C224.516 72.0276 222.965 72.682 221.218 73.0699V73.5547C223.128 73.6355 224.916 74.1687 226.582 75.1545C228.264 76.1402 229.627 77.5219 230.673 79.2994C231.718 81.0608 232.24 83.1616 232.24 85.6017C232.24 88.2357 231.579 90.587 230.256 92.6554C228.95 94.7077 227.015 96.3317 224.451 97.5276C221.887 98.7234 218.728 99.3213 214.972 99.3213H193.54ZM204.146 90.7405H212.792C215.748 90.7405 217.903 90.183 219.258 89.068C220.614 87.9368 221.291 86.4339 221.291 84.5594C221.291 83.1858 220.957 81.9739 220.287 80.9235C219.618 79.8731 218.662 79.049 217.421 78.451C216.197 77.8531 214.735 77.5542 213.037 77.5542H204.146V90.7405ZM204.146 70.452H212.008C213.461 70.452 214.751 70.2015 215.878 69.7006C217.021 69.1835 217.919 68.4563 218.573 67.519C219.242 66.5817 219.577 65.4587 219.577 64.1497C219.577 62.356 218.932 60.9097 217.642 59.8108C216.368 58.712 214.556 58.1625 212.204 58.1625H204.146V70.452Z" fill="white"/>
<path d="M282.48 74.5C282.48 79.9135 281.443 84.519 279.369 88.3165C277.312 92.1141 274.503 95.0147 270.943 97.0185C267.4 99.0062 263.416 100 258.99 100C254.532 100 250.532 98.9981 246.988 96.9943C243.445 94.9905 240.644 92.0898 238.587 88.2923C236.529 84.4948 235.501 79.8973 235.501 74.5C235.501 69.0865 236.529 64.481 238.587 60.6835C240.644 56.8859 243.445 53.9933 246.988 52.0057C250.532 50.0019 254.532 49 258.99 49C263.416 49 267.4 50.0019 270.943 52.0057C274.503 53.9933 277.312 56.8859 279.369 60.6835C281.443 64.481 282.48 69.0865 282.48 74.5ZM271.727 74.5C271.727 70.9933 271.196 68.0361 270.135 65.6283C269.09 63.2205 267.612 61.3945 265.702 60.1502C263.791 58.9059 261.554 58.2837 258.99 58.2837C256.427 58.2837 254.189 58.9059 252.279 60.1502C250.368 61.3945 248.882 63.2205 247.821 65.6283C246.776 68.0361 246.253 70.9933 246.253 74.5C246.253 78.0067 246.776 80.9639 247.821 83.3717C248.882 85.7795 250.368 87.6055 252.279 88.8498C254.189 90.0941 256.427 90.7163 258.99 90.7163C261.554 90.7163 263.791 90.0941 265.702 88.8498C267.612 87.6055 269.09 85.7795 270.135 83.3717C271.196 80.9639 271.727 78.0067 271.727 74.5Z" fill="white"/>
<path d="M302.274 91.7586V57.4354H311.043V91.7586H302.274ZM289.316 78.9358V70.2581H324V78.9358H289.316Z" fill="white"/>
<path fill-rule="evenodd" clip-rule="evenodd" d="M222.241 22.0993C222.215 22.2484 222.157 22.3903 222.072 22.5156C221.987 22.6409 221.876 22.7468 221.747 22.8265C221.485 23.0001 221.254 23.087 221.021 23.1738C220.527 23.3487 220.004 23.5235 219.452 23.7262C218.9 23.93 218.376 24.1338 217.883 24.2785C217.302 24.4823 216.748 24.6572 216.255 24.8598C215.877 25.0335 215.5 25.2373 215.151 25.5279C214.838 25.813 214.573 26.1469 214.366 26.5168C214.135 26.9232 214.018 27.4177 214.018 28.0279C214.018 29.2484 214.307 30.1493 214.89 30.7595C215.47 31.3408 216.546 31.6604 218.116 31.6604C219.714 31.6604 220.817 31.3408 221.398 30.7294C221.98 30.0902 222.27 29.2194 222.27 28.0569V22.0981H222.241V22.0993ZM218.116 9.34226C220.934 9.34226 222.996 9.8946 224.334 10.9981C225.642 12.1028 226.309 13.4981 226.309 15.1551V29.3931C226.309 29.9744 226.193 30.6136 225.99 31.2817C225.786 31.9799 225.379 32.6191 224.77 33.1715C224.159 33.7516 223.316 34.2171 222.27 34.6247C221.224 35.0022 219.829 35.2048 218.143 35.2048C216.43 35.2048 215.063 35.0022 214.018 34.6247C212.971 34.246 212.129 33.7516 211.519 33.1715C210.909 32.5902 210.501 31.951 210.298 31.2817C210.095 30.5846 209.978 29.9455 209.978 29.3943V27.127C209.978 25.9066 210.298 24.8019 210.909 23.8142C211.548 22.8265 212.42 22.1004 213.581 21.6928C214.162 21.489 214.802 21.2864 215.558 21.0247C216.285 20.763 217.011 20.5303 217.708 20.2686C218.405 20.037 218.986 19.8042 219.51 19.6294C220.033 19.4256 220.353 19.3387 220.469 19.2808C220.584 19.2229 220.759 19.1349 220.963 19.0191C221.166 18.9034 221.369 18.7285 221.573 18.5247C221.777 18.2931 221.922 18.0314 222.067 17.7697C222.212 17.4791 222.27 17.1306 222.27 16.7519V15.851C222.27 15.5326 222.212 15.2119 222.067 14.8633C221.951 14.5159 221.719 14.2241 221.398 13.9335C221.079 13.644 220.643 13.4113 220.12 13.2364C219.597 13.0627 218.929 12.9747 218.116 12.9747C216.518 12.9747 215.441 13.2943 214.861 13.9624C214.359 14.5494 214.063 15.2842 214.018 16.0548C214.018 16.2285 213.872 16.3455 213.698 16.3455H210.21C210.126 16.3449 210.045 16.311 209.985 16.2512C209.925 16.1914 209.891 16.1105 209.891 16.0259V15.1829C209.891 14.37 210.037 13.6139 210.356 12.9168C210.646 12.2197 211.14 11.5806 211.839 11.0572C212.507 10.5338 213.35 10.0984 214.395 9.8066C215.442 9.51711 216.662 9.34226 218.116 9.34226ZM162.349 22.0981C162.323 22.2472 162.265 22.389 162.18 22.5143C162.095 22.6396 161.985 22.7456 161.856 22.8253C161.594 22.999 161.363 23.0858 161.13 23.1727C160.636 23.3475 160.112 23.5224 159.561 23.725C159.009 23.9288 158.485 24.1326 157.992 24.2773C157.41 24.4811 156.857 24.656 156.364 24.8586C155.968 25.0313 155.596 25.256 155.259 25.5268C154.97 25.7885 154.708 26.108 154.475 26.5156C154.244 26.9221 154.127 27.4165 154.127 28.0267C154.127 29.2472 154.416 30.1481 154.998 30.7583C155.579 31.3396 156.655 31.6592 158.224 31.6592C159.822 31.6592 160.926 31.3396 161.508 30.7282C162.089 30.089 162.38 29.2183 162.38 28.0557V22.0981H162.351H162.349ZM158.225 9.34226C161.043 9.34226 163.107 9.8946 164.443 10.9981C165.751 12.1028 166.42 13.4981 166.42 15.1551V29.3931C166.42 29.9744 166.304 30.6136 166.1 31.2817C165.896 31.9799 165.49 32.6191 164.88 33.1715C164.269 33.7516 163.426 34.2171 162.381 34.6247C161.334 35.0022 159.94 35.2048 158.254 35.2048C156.54 35.2048 155.174 35.0022 154.128 34.6247C153.081 34.246 152.239 33.7516 151.628 33.1715C151.017 32.589 150.61 31.951 150.408 31.2806C150.204 30.5835 150.087 29.9443 150.087 29.3931V27.1259C150.087 25.9054 150.408 24.8007 151.017 23.813C151.656 22.8253 152.528 22.0993 153.692 21.6917C154.27 21.4879 154.911 21.2852 155.667 21.0235C156.393 20.7618 157.119 20.5291 157.817 20.2674C158.514 20.0358 159.096 19.8031 159.619 19.6282C160.141 19.4244 160.462 19.3376 160.578 19.2797C160.694 19.2218 160.867 19.1338 161.072 19.018C161.275 18.9022 161.477 18.7274 161.681 18.5236C161.885 18.292 162.031 18.0303 162.176 17.7686C162.322 17.4779 162.38 17.1294 162.38 16.7508V15.8499C162.38 15.5314 162.322 15.2107 162.176 14.8622C162.06 14.5148 161.827 14.223 161.508 13.9323C161.188 13.6428 160.751 13.4101 160.229 13.2353C159.706 13.0616 159.037 12.9736 158.224 12.9736C156.626 12.9736 155.55 13.2931 154.97 13.9613C154.468 14.5483 154.172 15.283 154.127 16.0537C154.127 16.2274 153.981 16.3443 153.807 16.3443H150.32C150.235 16.3437 150.154 16.31 150.095 16.2505C150.035 16.1909 150.001 16.1103 150 16.0259V15.1829C150 14.37 150.146 13.6139 150.465 12.9168C150.755 12.2197 151.249 11.5806 151.948 11.0572C152.616 10.5338 153.458 10.0984 154.504 9.8066C155.521 9.51711 156.77 9.34226 158.224 9.34226H158.225ZM205.737 9.34226H208.061C208.265 9.34226 208.41 9.54606 208.352 9.7487L207.568 12.7709C207.539 12.9168 207.394 13.0037 207.277 13.0037H205.649C204.779 13.0037 204.08 13.1195 203.528 13.3522C203.006 13.5849 202.569 13.8466 202.279 14.1662C202.02 14.437 201.831 14.7658 201.726 15.125C201.648 15.4386 201.609 15.7606 201.61 16.0838V34.9744C201.61 35.1481 201.466 35.294 201.291 35.294H197.803C197.719 35.2931 197.638 35.2591 197.578 35.1994C197.518 35.1396 197.484 35.0589 197.484 34.9744V15.2709C197.484 14.9212 197.541 14.399 197.687 13.7308C197.803 13.0627 198.153 12.4224 198.704 11.7542C199.256 11.1151 200.07 10.5338 201.175 10.0683C202.25 9.57501 203.79 9.34226 205.737 9.34226ZM193.967 28.4922V29.3642C193.967 29.7417 193.909 30.265 193.763 30.9332C193.647 31.5724 193.299 32.2416 192.746 32.8808C192.194 33.52 191.38 34.1013 190.277 34.5656C189.172 35.0311 187.661 35.2639 185.714 35.2639C183.767 35.2639 182.256 35.0311 181.152 34.5656C180.047 34.1013 179.233 33.549 178.681 32.8808C178.13 32.2416 177.781 31.5724 177.664 30.9042C177.548 30.2361 177.462 29.7417 177.462 29.3642V9.66186C177.462 9.48816 177.606 9.34226 177.781 9.34226H181.239C181.323 9.34346 181.404 9.37752 181.464 9.43719C181.523 9.49687 181.557 9.57747 181.558 9.66186V28.1148C181.558 28.725 181.645 29.1604 181.732 29.5101C181.82 29.8574 181.994 30.2071 182.256 30.4978C182.517 30.8174 182.924 31.0791 183.476 31.2817C183.999 31.4855 184.727 31.6025 185.626 31.6025C186.556 31.6025 187.312 31.4855 187.865 31.2817C188.416 31.0791 188.823 30.8174 189.114 30.5267C189.403 30.2361 189.608 29.9165 189.695 29.568C189.782 29.2194 189.898 28.9288 189.898 28.0858V9.66186C189.899 9.57707 189.933 9.49601 189.993 9.43605C190.053 9.37609 190.134 9.34201 190.219 9.34111H193.676C193.761 9.3423 193.841 9.37636 193.901 9.43604C193.961 9.49571 193.995 9.57631 193.996 9.6607V28.4911H193.967V28.4922ZM170.197 0.013916H173.654C173.739 0.0151132 173.819 0.0491686 173.879 0.108846C173.939 0.168523 173.973 0.249119 173.974 0.333507V34.9443C173.973 35.0287 173.939 35.1093 173.879 35.1689C173.819 35.2286 173.739 35.2627 173.654 35.2639H170.197C170.112 35.2633 170.031 35.2292 169.971 35.1692C169.911 35.1091 169.877 35.0279 169.877 34.9431V0.333507C169.877 0.159816 170.022 0.013916 170.197 0.013916Z" fill="white"/>
<mask id="mask0_1_82" style="mask-type:alpha" maskUnits="userSpaceOnUse" x="232" y="0" width="5" height="36">
<path d="M236.111 0H232.271V35.0369H236.111V0Z" fill="white"/>
</mask>
<g mask="url(#mask0_1_82)">
<path fill-rule="evenodd" clip-rule="evenodd" d="M233.15 35.0369C232.547 35.0369 232.27 34.759 232.27 34.1568V0.880033C232.27 0.277905 232.547 0 233.15 0H235.234C235.836 0 236.113 0.277905 236.113 0.880033V34.1568C236.113 34.759 235.835 35.0369 235.233 35.0369H233.151H233.15Z" fill="#EC2F46"/>
</g>
<path fill-rule="evenodd" clip-rule="evenodd" d="M259.815 20.58C259.815 16.6905 258.38 14.9316 255.093 14.9316C251.805 14.9316 250.37 16.6917 250.37 20.58V34.1904C250.37 34.7926 250.092 35.0705 249.491 35.0705H247.407C246.806 35.0705 246.528 34.7926 246.528 34.1904V20.1643C246.528 14.6097 249.538 11.6002 255.093 11.6002C260.649 11.6002 263.657 14.6097 263.657 20.1643V34.1916C263.657 34.7937 263.38 35.0716 262.777 35.0716H260.694C260.092 35.0716 259.814 34.7937 259.814 34.1916V20.5812L259.815 20.58ZM280.185 25.6854V20.6854C280.185 16.7496 278.656 14.898 275.277 14.898C271.945 14.898 270.416 16.7507 270.416 20.6854V25.6854C270.416 29.7127 271.945 31.5179 275.277 31.5179C278.565 31.5179 280.185 29.5737 280.185 25.6854ZM284.027 34.8053C284.027 39.9442 280.741 43 275.324 43C272.269 43 269.768 42.1663 267.824 40.4526C267.407 40.082 267.361 39.6663 267.685 39.2031L268.565 37.9526C268.889 37.4442 269.306 37.3979 269.769 37.8148C271.296 39.0653 273.055 39.6675 275.092 39.6675C278.426 39.6675 280.185 37.8611 280.185 34.5274V32.5369H280.092C278.934 34.0654 277.13 34.8528 274.675 34.8528C269.445 34.8528 266.574 31.7958 266.574 26.1022V20.3149C266.574 14.6201 269.583 11.5643 275.277 11.5643C280.972 11.5643 284.027 14.6213 284.027 20.3149V34.8053ZM303.841 27.1895C303.841 32.699 300.925 35.6158 295.416 35.6158C289.907 35.6158 286.99 32.6978 286.99 27.1895V13.0233C286.99 12.4212 287.268 12.1433 287.87 12.1433H289.954C290.555 12.1433 290.833 12.4212 290.833 13.0233V26.8653C290.833 30.6147 292.269 32.2821 295.463 32.2821C298.656 32.2821 300.092 30.6147 300.092 26.8653V13.0233C300.092 12.4212 300.37 12.1433 300.972 12.1433H302.961C303.563 12.1433 303.841 12.4212 303.841 13.0233V27.1895ZM319.768 26.2435V24.4383H315.231C312.128 24.4383 310.37 25.7352 310.37 28.2815C310.37 30.7815 311.851 32.0309 314.813 32.0309C318.101 32.0309 319.768 30.0855 319.768 26.2435ZM323.61 20.3183V26.614C323.61 32.3088 320.554 35.3646 314.813 35.3646C309.49 35.3646 306.527 32.8183 306.527 28.2351C306.527 23.7898 309.445 21.2435 314.768 21.2435H319.768V20.6877C319.768 16.4763 318.054 14.6699 314.49 14.6699C312.822 14.6699 311.295 15.272 309.907 16.43C309.443 16.8468 309.027 16.8468 308.656 16.3373L307.683 14.9941C307.359 14.531 307.406 14.1141 307.822 13.7436C309.814 12.1236 312.129 11.3374 314.813 11.3374C320.554 11.3374 323.61 14.392 323.61 20.3183ZM242.959 8.31862C242.853 8.47815 242.708 8.60839 242.538 8.6974C242.368 8.78641 242.178 8.83136 241.987 8.82811H240.09C239.488 8.82811 239.257 8.41126 239.58 7.90176L243.051 2.30429C243.282 1.98007 243.56 1.7948 243.976 1.7948H246.381C247.076 1.7948 247.261 2.21166 246.844 2.76747L242.958 8.31862H242.959ZM240.274 35.0091C239.672 35.0091 239.394 34.7312 239.394 34.1302V12.9909C239.394 12.3888 239.672 12.1109 240.274 12.1109H242.356C242.958 12.1109 243.236 12.3888 243.236 12.9909V34.1314C243.236 34.7335 242.958 35.0114 242.356 35.0114H240.274V35.0091Z" fill="#EC2F46"/>
<path fill-rule="evenodd" clip-rule="evenodd" d="M104.241 22.0993C104.215 22.2484 104.157 22.3903 104.072 22.5156C103.987 22.6409 103.876 22.7468 103.747 22.8265C103.485 23.0001 103.254 23.087 103.021 23.1738C102.527 23.3487 102.004 23.5235 101.452 23.7262C100.9 23.93 100.376 24.1338 99.8829 24.2785C99.3017 24.4823 98.7482 24.6572 98.2549 24.8598C97.8774 25.0335 97.4999 25.2373 97.1514 25.5279C96.838 25.813 96.5729 26.1469 96.3663 26.5168C96.1347 26.9232 96.0177 27.4177 96.0177 28.0279C96.0177 29.2484 96.3072 30.1493 96.8897 30.7595C97.4698 31.3408 98.5455 31.6604 100.116 31.6604C101.714 31.6604 102.817 31.3408 103.398 30.7294C103.98 30.0902 104.27 29.2194 104.27 28.0569V22.0981H104.241V22.0993ZM100.116 9.34226C102.934 9.34226 104.996 9.8946 106.334 10.9981C107.642 12.1028 108.309 13.4981 108.309 15.1551V29.3931C108.309 29.9744 108.193 30.6136 107.99 31.2817C107.786 31.9799 107.379 32.6191 106.77 33.1715C106.159 33.7516 105.316 34.2171 104.27 34.6247C103.224 35.0022 101.829 35.2048 100.143 35.2048C98.4297 35.2048 97.0634 35.0022 96.0177 34.6247C94.971 34.246 94.1292 33.7516 93.5189 33.1715C92.9087 32.5902 92.5011 31.951 92.2985 31.2817C92.0947 30.5846 91.9777 29.9455 91.9777 29.3943V27.127C91.9777 25.9066 92.2985 24.8019 92.9087 23.8142C93.5479 22.8265 94.4198 22.1004 95.5812 21.6928C96.1625 21.489 96.8017 21.2864 97.5578 21.0247C98.285 20.763 99.011 20.5303 99.7081 20.2686C100.405 20.037 100.986 19.8042 101.51 19.6294C102.033 19.4256 102.353 19.3387 102.469 19.2808C102.584 19.2229 102.759 19.1349 102.963 19.0191C103.166 18.9034 103.369 18.7285 103.573 18.5247C103.777 18.2931 103.922 18.0314 104.067 17.7697C104.212 17.4791 104.27 17.1306 104.27 16.7519V15.851C104.27 15.5326 104.212 15.2119 104.067 14.8633C103.951 14.5159 103.719 14.2241 103.398 13.9335C103.079 13.644 102.643 13.4113 102.12 13.2364C101.597 13.0627 100.929 12.9747 100.116 12.9747C98.5177 12.9747 97.4408 13.2943 96.8607 13.9624C96.3593 14.5494 96.0633 15.2842 96.0177 16.0548C96.0177 16.2285 95.8718 16.3455 95.6982 16.3455H92.2104C92.1259 16.3449 92.0449 16.311 91.9851 16.2512C91.9253 16.1914 91.8915 16.1105 91.8909 16.0259V15.1829C91.8909 14.37 92.0368 13.6139 92.3563 12.9168C92.6458 12.2197 93.1403 11.5806 93.8385 11.0572C94.5066 10.5338 95.3496 10.0984 96.3952 9.8066C97.442 9.51711 98.6625 9.34226 100.116 9.34226ZM44.3494 22.0981C44.3229 22.2472 44.2653 22.389 44.1803 22.5143C44.0953 22.6396 43.9848 22.7456 43.8561 22.8253C43.5944 22.999 43.3628 23.0858 43.1301 23.1727C42.6357 23.3475 42.1123 23.5224 41.5611 23.725C41.0088 23.9288 40.4854 24.1326 39.9921 24.2773C39.4096 24.4811 38.8573 24.656 38.364 24.8586C37.9677 25.0313 37.5963 25.256 37.2594 25.5268C36.9699 25.7885 36.7082 26.108 36.4754 26.5156C36.2438 26.9221 36.1269 27.4165 36.1269 28.0267C36.1269 29.2472 36.4164 30.1481 36.9977 30.7583C37.5789 31.3396 38.6547 31.6592 40.2237 31.6592C41.8216 31.6592 42.9263 31.3396 43.5076 30.7282C44.0889 30.089 44.3795 29.2183 44.3795 28.0557V22.0981H44.3506H44.3494ZM40.2248 9.34226C43.0433 9.34226 45.1067 9.8946 46.443 10.9981C47.7514 12.1028 48.4196 13.4981 48.4196 15.1551V29.3931C48.4196 29.9744 48.3038 30.6136 48.1 31.2817C47.8962 31.9799 47.4897 32.6191 46.8795 33.1715C46.2693 33.7516 45.4263 34.2171 44.3807 34.6247C43.3339 35.0022 41.9397 35.2048 40.2538 35.2048C38.54 35.2048 37.1737 35.0022 36.128 34.6247C35.0813 34.246 34.2395 33.7516 33.6281 33.1715C33.0167 32.589 32.6102 31.951 32.4076 31.2806C32.2038 30.5835 32.0868 29.9443 32.0868 29.3931V27.1259C32.0868 25.9054 32.4076 24.8007 33.0167 23.813C33.6559 22.8253 34.5278 22.0993 35.6915 21.6917C36.2705 21.4879 36.9108 21.2852 37.6669 21.0235C38.393 20.7618 39.119 20.5291 39.8172 20.2674C40.5143 20.0358 41.0956 19.8031 41.619 19.6282C42.1412 19.4244 42.462 19.3376 42.5778 19.2797C42.6936 19.2218 42.8672 19.1338 43.0722 19.018C43.2748 18.9022 43.4775 18.7274 43.6813 18.5236C43.8851 18.292 44.031 18.0303 44.1757 17.7686C44.3216 17.4779 44.3795 17.1294 44.3795 16.7508V15.8499C44.3795 15.5314 44.3216 15.2107 44.1757 14.8622C44.0599 14.5148 43.8272 14.223 43.5076 13.9323C43.188 13.6428 42.7515 13.4101 42.2292 13.2353C41.7058 13.0616 41.0365 12.9736 40.2237 12.9736C38.6257 12.9736 37.55 13.2931 36.9699 13.9613C36.4684 14.5483 36.1724 15.283 36.1269 16.0537C36.1269 16.2274 35.981 16.3443 35.8073 16.3443H32.3196C32.2352 16.3437 32.1545 16.31 32.0947 16.2505C32.0349 16.1909 32.0009 16.1103 32 16.0259V15.1829C32 14.37 32.1459 13.6139 32.4655 12.9168C32.755 12.2197 33.2494 11.5806 33.9477 11.0572C34.6158 10.5338 35.4576 10.0984 36.5044 9.8066C37.521 9.51711 38.7705 9.34226 40.2237 9.34226H40.2248ZM87.7373 9.34226H90.0613C90.2651 9.34226 90.4099 9.54606 90.352 9.7487L89.568 12.7709C89.5391 12.9168 89.3943 13.0037 89.2774 13.0037H87.6493C86.7786 13.0037 86.0803 13.1195 85.528 13.3522C85.0058 13.5849 84.5692 13.8466 84.2786 14.1662C84.0204 14.437 83.831 14.7658 83.7262 15.125C83.6483 15.4386 83.6094 15.7606 83.6104 16.0838V34.9744C83.6104 35.1481 83.4657 35.294 83.2909 35.294H79.8031C79.7187 35.2931 79.6379 35.2591 79.5782 35.1994C79.5184 35.1396 79.4845 35.0589 79.4836 34.9744V15.2709C79.4836 14.9212 79.5415 14.399 79.6874 13.7308C79.8031 13.0627 80.1528 12.4224 80.704 11.7542C81.2564 11.1151 82.0704 10.5338 83.1751 10.0683C84.2496 9.57501 85.7897 9.34226 87.7373 9.34226ZM75.9669 28.4922V29.3642C75.9669 29.7417 75.909 30.265 75.7631 30.9332C75.6473 31.5724 75.2988 32.2416 74.7464 32.8808C74.1941 33.52 73.3801 34.1013 72.2766 34.5656C71.1719 35.0311 69.6608 35.2639 67.7143 35.2639C65.7666 35.2639 64.2555 35.0311 63.152 34.5656C62.0473 34.1013 61.2333 33.549 60.681 32.8808C60.1298 32.2416 59.7812 31.5724 59.6643 30.9042C59.5485 30.2361 59.4617 29.7417 59.4617 29.3642V9.66186C59.4617 9.48816 59.6064 9.34226 59.7812 9.34226H63.2388C63.3232 9.34346 63.4038 9.37752 63.4635 9.43719C63.5232 9.49687 63.5572 9.57747 63.5584 9.66186V28.1148C63.5584 28.725 63.6453 29.1604 63.7321 29.5101C63.8201 29.8574 63.9938 30.2071 64.2555 30.4978C64.5172 30.8174 64.9236 31.0791 65.476 31.2817C65.9994 31.4855 66.7266 31.6025 67.6263 31.6025C68.5561 31.6025 69.3122 31.4855 69.8646 31.2817C70.4157 31.0791 70.8233 30.8174 71.114 30.5267C71.4035 30.2361 71.6084 29.9165 71.6953 29.568C71.7821 29.2194 71.8979 28.9288 71.8979 28.0858V9.66186C71.8988 9.57707 71.9329 9.49601 71.9928 9.43605C72.0528 9.37609 72.1339 9.34201 72.2187 9.34111H75.6763C75.7606 9.3423 75.8412 9.37636 75.9009 9.43604C75.9606 9.49571 75.9946 9.57631 75.9958 9.6607V28.4911H75.9669V28.4922ZM52.1968 0.013916H55.6544C55.7387 0.0151132 55.8193 0.0491686 55.879 0.108846C55.9387 0.168523 55.9727 0.249119 55.9739 0.333507V34.9443C55.9727 35.0287 55.9387 35.1093 55.879 35.1689C55.8193 35.2286 55.7387 35.2627 55.6544 35.2639H52.1968C52.112 35.2632 52.0309 35.2292 51.971 35.1692C51.9112 35.1091 51.8775 35.0279 51.8772 34.9431V0.333507C51.8772 0.159816 52.0219 0.013916 52.1968 0.013916Z" fill="white"/>
<path fill-rule="evenodd" clip-rule="evenodd" d="M125.688 12H122.312C122.141 12 122 12.0828 122 12.1813V20H114.181C114.133 20.0012 114.088 20.0344 114.054 20.0927C114.02 20.151 114.001 20.2296 114 20.312V23.688C114 23.8587 114.083 24 114.181 24H122V31.818C122 31.8661 122.033 31.9122 122.092 31.9463C122.15 31.9804 122.229 31.9997 122.312 32H125.688C125.77 31.9993 125.849 31.98 125.907 31.9461C125.966 31.9123 125.999 31.8666 126 31.8187V24H133.818C133.866 23.9997 133.912 23.9668 133.946 23.9083C133.98 23.8499 134 23.7707 134 23.688V20.312C133.999 20.2296 133.98 20.151 133.946 20.0927C133.912 20.0344 133.867 20.0012 133.819 20H126V12.1813C125.999 12.1334 125.966 12.0877 125.907 12.0539C125.849 12.02 125.77 12.0007 125.688 12Z" fill="white"/>
</g>
<defs>
<filter id="filter0_d_1_82" x="0" y="0" width="356" height="108" filterUnits="userSpaceOnUse" color-interpolation-filters="sRGB">
<feFlood flood-opacity="0" result="BackgroundImageFix"/>
<feColorMatrix in="SourceAlpha" type="matrix" values="0 0 0 0 0 0 0 0 0 0 0 0 0 0 0 0 0 0 127 0" result="hardAlpha"/>
<feOffset dy="4"/>
<feGaussianBlur stdDeviation="2"/>
<feComposite in2="hardAlpha" operator="out"/>
<feColorMatrix type="matrix" values="0 0 0 0 0 0 0 0 0 0 0 0 0 0 0 0 0 0 0.25 0"/>
<feBlend mode="normal" in2="BackgroundImageFix" result="effect1_dropShadow_1_82"/>
<feBlend mode="normal" in="SourceGraphic" in2="effect1_dropShadow_1_82" result="shape"/>
</filter>
</defs>
</svg>
