<svg width="102" height="36" viewBox="0 0 102 36" fill="none" xmlns="http://www.w3.org/2000/svg">
<path fill-rule="evenodd" clip-rule="evenodd" d="M72.2414 22.0854C72.2148 22.2345 72.157 22.3764 72.0718 22.5017C71.9866 22.627 71.8759 22.7329 71.747 22.8125C71.4853 22.9862 71.2537 23.0731 71.021 23.1599C70.5265 23.3348 70.0043 23.5096 69.452 23.7123C68.8996 23.916 68.3762 24.1198 67.8829 24.2646C67.3017 24.4684 66.7482 24.6432 66.2549 24.8459C65.8774 25.0196 65.4999 25.2234 65.1514 25.514C64.838 25.7991 64.5729 26.133 64.3663 26.5029C64.1347 26.9093 64.0177 27.4038 64.0177 28.014C64.0177 29.2345 64.3072 30.1353 64.8897 30.7456C65.4698 31.3269 66.5455 31.6464 68.1157 31.6464C69.7136 31.6464 70.8172 31.3269 71.3984 30.7155C71.9797 30.0763 72.2704 29.2055 72.2704 28.0429V22.0842H72.2414V22.0854ZM68.1157 9.32835C70.9341 9.32835 72.9964 9.88068 74.3338 10.9842C75.6423 12.0889 76.3093 13.4842 76.3093 15.1412V29.3792C76.3093 29.9605 76.1935 30.5997 75.9897 31.2678C75.7859 31.966 75.3794 32.6052 74.7704 33.1576C74.159 33.7377 73.316 34.2032 72.2704 34.6108C71.2236 34.9883 69.8294 35.1909 68.1435 35.1909C66.4297 35.1909 65.0634 34.9883 64.0177 34.6108C62.971 34.2321 62.1292 33.7377 61.5189 33.1576C60.9087 32.5763 60.5011 31.9371 60.2985 31.2678C60.0947 30.5707 59.9777 29.9315 59.9777 29.3804V27.1131C59.9777 25.8927 60.2985 24.788 60.9087 23.8003C61.5479 22.8125 62.4198 22.0865 63.5812 21.6789C64.1625 21.4751 64.8017 21.2725 65.5578 21.0108C66.285 20.7491 67.011 20.5163 67.7081 20.2547C68.4052 20.0231 68.9865 19.7903 69.5098 19.6155C70.0332 19.4117 70.3528 19.3248 70.4686 19.2669C70.5844 19.209 70.7593 19.121 70.9631 19.0052C71.1657 18.8894 71.3695 18.7146 71.5733 18.5108C71.7771 18.2792 71.9218 18.0175 72.0666 17.7558C72.2125 17.4652 72.2704 17.1166 72.2704 16.738V15.8371C72.2704 15.5187 72.2125 15.1979 72.0666 14.8494C71.9508 14.502 71.7192 14.2102 71.3984 13.9196C71.0789 13.6301 70.6435 13.3973 70.1201 13.2225C69.5967 13.0488 68.9286 12.9608 68.1157 12.9608C66.5177 12.9608 65.4408 13.2804 64.8607 13.9485C64.3593 14.5355 64.0633 15.2702 64.0177 16.0409C64.0177 16.2146 63.8718 16.3316 63.6982 16.3316H60.2104C60.1259 16.3309 60.0449 16.2971 59.9851 16.2373C59.9253 16.1775 59.8915 16.0965 59.8909 16.012V15.169C59.8909 14.3561 60.0368 13.6 60.3563 12.9029C60.6458 12.2058 61.1403 11.5666 61.8385 11.0433C62.5066 10.5199 63.3496 10.0845 64.3952 9.79268C65.442 9.5032 66.6625 9.32835 68.1157 9.32835ZM12.3494 22.0842C12.3229 22.2333 12.2653 22.3751 12.1803 22.5004C12.0953 22.6257 11.9848 22.7317 11.8561 22.8114C11.5944 22.9851 11.3628 23.0719 11.1301 23.1588C10.6357 23.3336 10.1123 23.5085 9.56109 23.7111C9.00876 23.9149 8.48537 24.1187 7.99209 24.2634C7.40964 24.4672 6.85731 24.6421 6.36403 24.8447C5.96775 25.0173 5.59625 25.242 5.25935 25.5128C4.96987 25.7745 4.70818 26.0941 4.47543 26.5017C4.24384 26.9082 4.12689 27.4026 4.12689 28.0128C4.12689 29.2333 4.41637 30.1342 4.99766 30.7444C5.57894 31.3257 6.65467 31.6453 8.22367 31.6453C9.82163 31.6453 10.9263 31.3257 11.5076 30.7143C12.0889 30.0751 12.3795 29.2044 12.3795 28.0418V22.0842H12.3506H12.3494ZM8.22483 9.32835C11.0433 9.32835 13.1067 9.88068 14.443 10.9842C15.7514 12.0889 16.4196 13.4842 16.4196 15.1412V29.3792C16.4196 29.9605 16.3038 30.5997 16.1 31.2678C15.8962 31.966 15.4897 32.6052 14.8795 33.1576C14.2693 33.7377 13.4263 34.2032 12.3807 34.6108C11.3339 34.9883 9.93974 35.1909 8.25378 35.1909C6.54003 35.1909 5.17367 34.9883 4.12805 34.6108C3.08127 34.2321 2.23945 33.7377 1.62806 33.1576C1.01667 32.5751 0.610233 31.9371 0.407594 31.2666C0.203797 30.5696 0.0868453 29.9304 0.0868453 29.3792V27.112C0.0868453 25.8915 0.407594 24.7868 1.01667 23.7991C1.65585 22.8114 2.52778 22.0854 3.69151 21.6778C4.27047 21.474 4.91081 21.2713 5.66695 21.0096C6.39297 20.7479 7.119 20.5152 7.81724 20.2535C8.51432 20.0219 9.0956 19.7892 9.61899 19.6143C10.1412 19.4105 10.462 19.3237 10.5778 19.2658C10.6936 19.2079 10.8672 19.1199 11.0722 19.0041C11.2748 18.8883 11.4775 18.7134 11.6813 18.5096C11.8851 18.278 12.031 18.0164 12.1757 17.7547C12.3216 17.464 12.3795 17.1155 12.3795 16.7368V15.836C12.3795 15.5175 12.3216 15.1968 12.1757 14.8482C12.0599 14.5009 11.8272 14.2091 11.5076 13.9184C11.188 13.6289 10.7515 13.3962 10.2292 13.2213C9.70583 13.0476 9.03655 12.9596 8.22367 12.9596C6.62572 12.9596 5.55 13.2792 4.96987 13.9474C4.46843 14.5344 4.17243 15.2691 4.12689 16.0398C4.12689 16.2134 3.98099 16.3304 3.8073 16.3304H0.319591C0.235216 16.3298 0.154451 16.2961 0.0946791 16.2365C0.0349074 16.177 0.000908394 16.0963 0 16.012L0 15.169C0 14.3561 0.1459 13.6 0.465491 12.9029C0.754975 12.2058 1.24941 11.5666 1.94765 11.0433C2.61578 10.5199 3.4576 10.0845 4.50438 9.79268C5.52105 9.5032 6.77046 9.32835 8.22367 9.32835H8.22483ZM55.7373 9.32835H58.0613C58.2651 9.32835 58.4099 9.53214 58.352 9.73478L57.568 12.757C57.5391 12.9029 57.3943 12.9897 57.2774 12.9897H55.6493C54.7786 12.9897 54.0803 13.1055 53.528 13.3383C53.0058 13.571 52.5692 13.8327 52.2786 14.1523C52.0204 14.4231 51.831 14.7519 51.7262 15.1111C51.6483 15.4247 51.6094 15.7467 51.6104 16.0699V34.9605C51.6104 35.1342 51.4657 35.2801 51.2909 35.2801H47.8031C47.7187 35.2791 47.6379 35.2452 47.5782 35.1854C47.5184 35.1257 47.4845 35.0449 47.4836 34.9605V15.257C47.4836 14.9073 47.5415 14.3851 47.6874 13.7169C47.8031 13.0488 48.1528 12.4085 48.704 11.7403C49.2564 11.1012 50.0704 10.5199 51.1751 10.0544C52.2496 9.56109 53.7897 9.32835 55.7373 9.32835ZM43.9669 28.4783V29.3503C43.9669 29.7277 43.909 30.2511 43.7631 30.9193C43.6473 31.5584 43.2988 32.2277 42.7464 32.8669C42.1941 33.5061 41.3801 34.0874 40.2766 34.5517C39.1719 35.0172 37.6608 35.2499 35.7143 35.2499C33.7666 35.2499 32.2555 35.0172 31.152 34.5517C30.0473 34.0874 29.2333 33.535 28.681 32.8669C28.1298 32.2277 27.7812 31.5584 27.6643 30.8903C27.5485 30.2222 27.4617 29.7277 27.4617 29.3503V9.64794C27.4617 9.47425 27.6064 9.32835 27.7812 9.32835H31.2388C31.3232 9.32955 31.4038 9.3636 31.4635 9.42328C31.5232 9.48295 31.5572 9.56355 31.5584 9.64794V28.1008C31.5584 28.7111 31.6453 29.1465 31.7321 29.4962C31.8201 29.8435 31.9938 30.1932 32.2555 30.4839C32.5172 30.8035 32.9236 31.0652 33.476 31.2678C33.9994 31.4716 34.7266 31.5885 35.6263 31.5885C36.5561 31.5885 37.3122 31.4716 37.8646 31.2678C38.4157 31.0652 38.8233 30.8035 39.114 30.5128C39.4035 30.2222 39.6084 29.9026 39.6953 29.554C39.7821 29.2055 39.8979 28.9149 39.8979 28.0719V9.64794C39.8988 9.56315 39.9329 9.48209 39.9928 9.42213C40.0528 9.36218 40.1339 9.32809 40.2187 9.32719H43.6763C43.7606 9.32839 43.8412 9.36244 43.9009 9.42212C43.9606 9.4818 43.9946 9.56239 43.9958 9.64678V28.4772H43.9669V28.4783ZM20.1968 0H23.6544C23.7387 0.00119717 23.8193 0.0352526 23.879 0.09493C23.9387 0.154607 23.9727 0.235203 23.9739 0.319591V34.9304C23.9727 35.0147 23.9387 35.0953 23.879 35.155C23.8193 35.2147 23.7387 35.2487 23.6544 35.2499H20.1968C20.112 35.2493 20.0309 35.2153 19.971 35.1553C19.9112 35.0952 19.8775 35.014 19.8772 34.9292V0.319591C19.8772 0.1459 20.0219 0 20.1968 0Z" fill="white"/>
<path fill-rule="evenodd" clip-rule="evenodd" d="M93.688 11.9861H90.312C90.1413 11.9861 90 12.0689 90 12.1674V19.9861H82.1813C82.1334 19.9873 82.0877 20.0205 82.0539 20.0788C82.02 20.137 82.0007 20.2157 82 20.2981V23.674C82 23.8448 82.0828 23.9861 82.1813 23.9861H90V31.8041C90.0003 31.8522 90.0332 31.8983 90.0917 31.9324C90.1501 31.9664 90.2293 31.9857 90.312 31.9861H93.688C93.7704 31.9854 93.849 31.9661 93.9073 31.9322C93.9656 31.8984 93.9988 31.8526 94 31.8048V23.9861H101.818C101.866 23.9858 101.912 23.9529 101.946 23.8944C101.98 23.836 102 23.7568 102 23.674V20.2981C101.999 20.2157 101.98 20.137 101.946 20.0788C101.912 20.0205 101.867 19.9873 101.819 19.9861H94V12.1674C93.9988 12.1195 93.9656 12.0738 93.9073 12.0399C93.849 12.0061 93.7704 11.9868 93.688 11.9861Z" fill="white"/>
</svg>
