<svg width="32" height="32" viewBox="0 0 32 32" fill="none" xmlns="http://www.w3.org/2000/svg">
<g id="Group">
<path id="Vector" d="M24.0002 7.99935H21.3335C21.3335 5.05268 18.9468 2.66602 16.0002 2.66602C13.0535 2.66602 10.6668 5.05268 10.6668 7.99935H8.00016C6.5335 7.99935 5.3335 9.19935 5.3335 10.666V26.666C5.3335 28.1327 6.5335 29.3327 8.00016 29.3327H24.0002C25.4668 29.3327 26.6668 28.1327 26.6668 26.666V10.666C26.6668 9.19935 25.4668 7.99935 24.0002 7.99935ZM16.0002 5.33268C17.4668 5.33268 18.6668 6.53268 18.6668 7.99935H13.3335C13.3335 6.53268 14.5335 5.33268 16.0002 5.33268ZM24.0002 26.666H8.00016V10.666H10.6668V13.3327C10.6668 14.066 11.2668 14.666 12.0002 14.666C12.7335 14.666 13.3335 14.066 13.3335 13.3327V10.666H18.6668V13.3327C18.6668 14.066 19.2668 14.666 20.0002 14.666C20.7335 14.666 21.3335 14.066 21.3335 13.3327V10.666H24.0002V26.666Z" fill="#002F52"/>
</g>
</svg>
