<svg width="588" height="39" viewBox="0 0 588 39" fill="none" xmlns="http://www.w3.org/2000/svg">
<g clip-path="url(#clip0_111_2426)">
<path d="M570.72 9.15607H584.97V10.5461H570.72V9.15607Z" fill="#0C0421"/>
<path d="M585.64 11.7161C584.613 11.7161 583.78 10.8833 583.78 9.85609C583.78 8.82884 584.613 7.99609 585.64 7.99609C586.667 7.99609 587.5 8.82884 587.5 9.85609C587.5 10.8833 586.667 11.7161 585.64 11.7161Z" fill="#0C0421"/>
<path d="M570.5 9.26611L582.85 2.13611L583.54 3.34611L571.2 10.4761L570.5 9.26611Z" fill="#0C0421"/>
<path d="M583.78 4.26608C582.753 4.26608 581.92 3.43333 581.92 2.40608C581.92 1.37883 582.753 0.546082 583.78 0.546082C584.807 0.546082 585.64 1.37883 585.64 2.40608C585.64 3.43333 584.807 4.26608 583.78 4.26608Z" fill="#0C0421"/>
<path d="M570.5 10.4361L571.2 9.22607L583.54 16.3561L582.85 17.5661L570.5 10.4361Z" fill="#0C0421"/>
<path d="M583.78 19.1561C582.753 19.1561 581.92 18.3233 581.92 17.2961C581.92 16.2688 582.753 15.4361 583.78 15.4361C584.807 15.4361 585.64 16.2688 585.64 17.2961C585.64 18.3233 584.807 19.1561 583.78 19.1561Z" fill="#0C0421"/>
<path d="M250.12 36.6961C261.8 36.6961 272.79 32.1461 281.05 23.8861L282.72 22.2161C291.23 13.7061 302.54 9.02606 314.57 9.02606H571.53V10.3361H314.57C302.89 10.3361 291.9 14.8861 283.64 23.1461L281.97 24.8161C273.46 33.3261 262.15 38.0061 250.12 38.0061H0.5V36.6961H250.12Z" fill="#0C0421"/>
</g>
<defs>
<clipPath id="clip0_111_2426">
<rect width="587" height="37.46" fill="white" transform="matrix(-1 0 0 1 587.5 0.546082)"/>
</clipPath>
</defs>
</svg>