<svg width="64" height="64" viewBox="0 0 64 64" fill="none" xmlns="http://www.w3.org/2000/svg">
<rect width="64" height="64" rx="8" fill="#132E35"/>
<g clip-path="url(#clip0_155_4154)">
<path d="M33.9301 31.5875L30.1266 29.8088L30.1436 28.4104C30.1436 27.4625 29.3387 26.6609 27.7345 26.0055C26.6179 25.555 25.3935 25.3268 24.0671 25.3268C22.7407 25.3268 21.5163 25.555 20.3996 26.0055C18.7898 26.6784 17.9906 27.48 17.9906 28.4104V46.7186C17.9906 47.6664 18.7955 48.4681 20.3996 49.1234C21.5163 49.5739 22.735 49.8021 24.0671 49.8021C25.3991 49.8021 26.6179 49.5739 27.7345 49.1234C29.3387 48.4505 30.1436 47.6489 30.1436 46.7186V41.7802H30.342L34.1285 43.6292V46.7127C34.1285 49.2228 32.6207 51.1245 29.6051 52.4117C27.9159 53.1373 26.068 53.5 24.0671 53.5C22.0661 53.5 20.2126 53.1373 18.5291 52.4117C15.5078 51.1245 14 49.2228 14 46.7127V28.4045C14 25.8944 15.5078 23.9927 18.5234 22.7055C20.2126 21.98 22.0548 21.6172 24.0614 21.6172C26.068 21.6172 27.9159 21.98 29.5994 22.7055C32.615 23.9927 34.1228 25.8944 34.1228 28.4045V31.5875H33.9244H33.9301Z" fill="#81FE88"/>
<path d="M34.1285 43.6292C34.1285 43.6292 30.6934 42.0962 30.1266 40.3408L30.1436 42.4765L34.1285 43.6292Z" fill="#81FE88"/>
<path d="M30.0699 32.4125L33.8734 34.1913L33.8564 35.5897C33.8564 36.5376 34.6613 37.3392 36.2655 37.9945C37.3821 38.445 38.6065 38.6732 39.9329 38.6732C41.2593 38.6732 42.4837 38.445 43.6004 37.9945C45.2102 37.3216 46.0095 36.52 46.0095 35.5897V17.2873C46.0095 16.3394 45.2045 15.5378 43.6004 14.8825C42.4837 14.432 41.265 14.2038 39.9329 14.2038C38.6009 14.2038 37.3821 14.432 36.2655 14.8825C34.6613 15.5554 33.8564 16.357 33.8564 17.2873V22.2257H33.658L29.8715 20.3767V17.2932C29.8715 14.783 31.3793 12.8814 34.3949 11.5942C36.0841 10.8628 37.932 10.5 39.9329 10.5C41.9339 10.5 43.7874 10.8628 45.471 11.5883C48.4865 12.8756 49.9943 14.7772 49.9943 17.2873V35.5955C49.9943 38.1057 48.4865 40.0073 45.471 41.2945C43.7818 42.0201 41.9395 42.3828 39.9329 42.3828C37.9263 42.3828 36.0784 42.0201 34.3949 41.2945C31.3793 40.0073 29.8715 38.1057 29.8715 35.5955V32.4125H30.0699Z" fill="#81FE88"/>
<path d="M29.8715 20.3708C29.8715 20.3708 33.3066 21.9038 33.8734 23.6592L33.8564 21.5235L29.8715 20.3708Z" fill="#81FE88"/>
</g>
<defs>
<clipPath id="clip0_155_4154">
<rect width="36" height="43" fill="white" transform="translate(14 10.5)"/>
</clipPath>
</defs>
</svg>
