<svg width="48" height="50" viewBox="0 0 48 50" fill="none" xmlns="http://www.w3.org/2000/svg">
<mask id="mask0_10786_585" style="mask-type:luminance" maskUnits="userSpaceOnUse" x="3" y="4" width="42" height="42">
<path d="M44.8076 25.1924C44.5356 24.1888 43.9904 23.2415 43.1696 22.4688C40.9912 20.417 37.5524 20.3619 35.3083 22.3433C33.2799 23.8183 30.5023 29.4743 26.0082 31.4135C25.9719 31.43 25.9379 31.4464 25.9027 31.464C26.1349 30.6737 26.4784 29.8249 26.9603 28.915C27.9358 27.0742 27.332 24.6883 25.7409 23.1523C24.205 21.5613 21.819 20.9575 19.9782 21.933C19.1341 22.3809 18.3415 22.7068 17.6005 22.9378C19.5444 18.4554 25.8828 14.7821 26.6613 13.6577C28.6099 11.4511 28.5959 8.07911 26.6238 5.89246C25.8183 4.99904 24.8112 4.41515 23.7419 4.13962C23.4335 4.0599 22.5166 3.96493 21.6326 4.013C20.806 4.05872 20.0099 4.2428 19.6687 4.31549C18.7565 4.5113 17.8608 4.76807 16.9896 5.08111C13.5426 6.31807 10.4531 8.44375 8.06246 11.2495C7.98391 11.3409 7.9077 11.4347 7.83149 11.5273C7.78693 11.5824 7.74121 11.6364 7.69783 11.6915C2.44869 18.1518 1.59748 26.9945 5.14888 34.2251C6.14313 36.2488 7.48092 38.1459 9.16341 39.8283C10.8178 41.4827 12.6785 42.8029 14.6623 43.7913L15.109 44.007C20.459 46.5149 26.6027 46.604 32.0441 44.3634L32.0675 44.3799C34.5977 43.3469 36.8407 41.8532 38.7225 40.0253C38.7916 39.9597 38.8632 39.8963 38.9323 39.8283C39.5057 39.2714 40.1576 38.4941 40.1576 38.4941C40.1412 38.5105 40.1259 38.5246 40.1095 38.541C42.4146 35.8244 44.0138 32.5473 44.7149 29.0205C44.7607 28.7907 44.8029 28.5586 44.8404 28.3264C44.9788 27.4799 45.1312 26.3919 44.8076 25.1924Z" fill="white"/>
</mask>
<g mask="url(#mask0_10786_585)">
<path d="M44.8416 28.3253C44.9799 27.4788 44.8498 25.346 44.8088 25.1913C44.5368 24.1876 43.9916 23.2403 43.1708 22.4676C40.9924 20.4158 37.5535 20.3607 35.3094 22.3422C31.8964 25.509 30.5035 29.4731 26.0094 31.4124C20.9397 33.599 29.29 42.4453 29.29 42.4453L32.0699 44.3775C38.7037 41.6691 43.369 35.8021 44.7173 29.0182C44.763 28.7884 44.8052 28.5563 44.8428 28.3241L44.8416 28.3253Z" fill="#1DDFFF"/>
<path d="M23.7419 4.13962C24.8112 4.41515 25.8171 4.99904 26.6238 5.89246C28.5947 8.07911 28.6088 11.4511 26.6613 13.6577C26.4585 13.8875 19.5304 18.4637 17.5911 22.9577C15.4045 28.0275 6.5582 19.6772 6.5582 19.6772L4.62598 16.8972C6.92518 11.2647 11.5048 7.04969 16.9896 5.08111C17.862 4.76807 18.7565 4.51247 19.6687 4.31549C20.0099 4.2428 20.806 4.05755 21.6326 4.013C22.5178 3.96493 23.4335 4.0599 23.7419 4.13962Z" fill="#1DDFFF"/>
<path d="M26.6612 13.6577C23.5577 17.1833 19.5303 18.4637 17.591 22.9577C15.4044 28.0275 6.55811 19.6772 6.55811 19.6772" fill="#1DDFFF"/>
<path d="M26.624 5.89247C28.5949 8.07912 28.6993 11.5332 26.6615 13.6577C23.4161 17.0415 19.5306 18.4637 17.5913 22.9577" fill="#1DDFFF"/>
<path d="M44.8417 28.3253C44.98 27.4787 45.0785 26.1245 44.8088 25.1913C44.5192 24.1923 43.9916 23.2403 43.1709 22.4676" fill="#1DDFFF"/>
<path d="M14.6635 43.7913C12.6797 42.8029 10.8179 41.4827 9.16467 39.8283C7.48218 38.1459 6.1444 36.2488 5.15015 34.2251L5.30257 34.1923C6.7447 33.9484 7.64985 33.599 9.05681 32.8545C10.8976 31.879 13.2835 32.4828 14.8195 34.0739C16.4105 35.6098 17.0143 37.9958 16.0388 39.8365C15.3014 41.2283 14.8887 42.4793 14.7011 43.5908L14.6647 43.7913H14.6635Z" fill="#3059EF"/>
<g filter="url(#filter0_d_10786_585)">
<path d="M40.1587 38.4941C40.1587 38.4941 39.5068 39.2714 38.9335 39.8283C32.3993 46.1784 22.9106 47.6639 15.1102 44.007L14.6634 43.7913L14.6998 43.5908C14.8874 42.4793 15.3001 41.2283 16.0376 39.8366C17.0131 37.9958 16.4092 35.6098 14.8182 34.0739C13.2823 32.4828 10.8963 31.879 9.05554 32.8545C7.64858 33.6002 6.74343 33.9496 5.3013 34.1923L5.14888 34.2251C1.28912 26.3637 2.6269 16.5959 9.16458 10.0594C9.58197 9.64201 10.0134 9.24689 10.4555 8.8717C4.41843 15.4528 9.45886 21.0267 9.45886 21.0267C9.45886 21.0267 12.8848 25.6907 19.9782 21.933C21.819 20.9575 24.205 21.5613 25.7409 23.1524C27.3319 24.6883 27.9358 27.0743 26.9603 28.915C23.2025 36.0073 27.8666 39.4344 27.8666 39.4344C27.8666 39.4344 33.3549 45.2991 40.1587 38.4953" fill="#1D81DB"/>
</g>
</g>
<defs>
<filter id="filter0_d_10786_585" x="-11.0007" y="-5.1283" width="77.1594" height="77.0984" filterUnits="userSpaceOnUse" color-interpolation-filters="sRGB">
<feFlood flood-opacity="0" result="BackgroundImageFix"/>
<feColorMatrix in="SourceAlpha" type="matrix" values="0 0 0 0 0 0 0 0 0 0 0 0 0 0 0 0 0 0 127 0" result="hardAlpha"/>
<feOffset dx="6" dy="6"/>
<feGaussianBlur stdDeviation="10"/>
<feColorMatrix type="matrix" values="0 0 0 0 0 0 0 0 0 0.0666667 0 0 0 0 0.356863 0 0 0 0.5 0"/>
<feBlend mode="normal" in2="BackgroundImageFix" result="effect1_dropShadow_10786_585"/>
<feBlend mode="normal" in="SourceGraphic" in2="effect1_dropShadow_10786_585" result="shape"/>
</filter>
</defs>
</svg>
