<svg width="129" height="40" viewBox="0 0 129 40" fill="none" xmlns="http://www.w3.org/2000/svg">
<g clip-path="url(#clip0_637_2323)">
<path d="M15.9451 21.4994L13.0694 20.1955L13.0802 19.1705C13.0802 18.4787 12.4717 17.8884 11.2548 17.4067C10.4109 17.0734 9.48732 16.9105 8.48044 16.9105C7.47356 16.9105 6.54998 17.0771 5.70609 17.4067C4.48913 17.8992 3.88066 18.486 3.88066 19.1705V32.5859C3.88066 33.2777 4.48913 33.8681 5.70609 34.3498C6.54998 34.683 7.47356 34.846 8.48044 34.846C9.48732 34.846 10.4109 34.6794 11.2548 34.3498C12.4717 33.8572 13.0802 33.2705 13.0802 32.5859V28.9677H13.2323L16.0972 30.3259V32.5859C16.0972 34.4259 14.9564 35.8167 12.6746 36.762C11.3997 37.2944 10.0016 37.5624 8.48406 37.5624C6.9665 37.5624 5.56845 37.2944 4.29355 36.762C2.01177 35.813 0.87088 34.4222 0.87088 32.5823V19.1669C0.87088 17.327 2.01177 15.9362 4.29355 14.9909C5.56845 14.4584 6.9665 14.1904 8.48406 14.1904C10.0016 14.1904 11.3997 14.4584 12.6746 14.9909C14.9564 15.9362 16.0972 17.327 16.0972 19.1669V21.4994H15.9451Z" fill="#81FE88"/>
<path d="M16.0936 30.3223C16.0936 30.3223 13.4967 29.1995 13.0694 27.9102L13.0802 29.4748L16.0936 30.3223Z" fill="#81FE88"/>
<path d="M13.0259 22.1043L15.9017 23.4082L15.8908 24.4332C15.8908 25.125 16.4993 25.7153 17.7162 26.197C18.5601 26.5303 19.4837 26.6932 20.4906 26.6932C21.4938 26.6932 22.421 26.5266 23.2649 26.197C24.4819 25.7045 25.0904 25.1177 25.0904 24.4332V11.0214C25.0904 10.3296 24.4819 9.73924 23.2649 9.25753C22.421 8.92431 21.4975 8.76133 20.4906 8.76133C19.4873 8.76133 18.5601 8.92793 17.7162 9.25753C16.4993 9.7501 15.8908 10.3368 15.8908 11.0214V14.6396H15.7387L12.8738 13.2814V11.0214C12.8738 9.18147 14.0147 7.79067 16.2965 6.84536C17.5714 6.31294 18.9694 6.04492 20.487 6.04492C22.0045 6.04492 23.4026 6.31294 24.6775 6.84536C26.9593 7.79067 28.1001 9.18147 28.1001 11.0214V24.4368C28.1001 26.2767 26.9593 27.6675 24.6775 28.6128C23.4026 29.1452 22.0045 29.4133 20.487 29.4133C18.9694 29.4133 17.5714 29.1452 16.2965 28.6128C14.0147 27.6675 12.8738 26.2767 12.8738 24.4368V22.1043H13.0259Z" fill="#81FE88"/>
<path d="M12.8774 13.2812C12.8774 13.2812 15.4743 14.404 15.9017 15.6934L15.8908 14.1288L12.8774 13.2812Z" fill="#81FE88"/>
<path d="M45.6481 31.8437V34.6181C45.6481 35.7372 44.8549 36.6137 43.2686 37.2403C42.4102 37.5699 41.4431 37.7365 40.3638 37.7365C39.2845 37.7365 38.3175 37.5699 37.4591 37.2403C35.8727 36.6137 35.0795 35.7372 35.0795 34.6181V26.3421C35.0795 25.2229 35.8727 24.3464 37.4591 23.7198C38.3175 23.3902 39.2845 23.2236 40.3638 23.2236C41.4431 23.2236 42.4102 23.3902 43.2686 23.7198C44.8549 24.3464 45.6481 25.2229 45.6481 26.3421V27.9719L43.2287 29.1164H43.102V26.7876C43.102 26.3638 42.8376 26.0451 42.3051 25.8314C41.7763 25.6177 41.128 25.5127 40.3638 25.5127C39.5996 25.5127 38.9513 25.6177 38.4225 25.8314C37.8937 26.0451 37.6257 26.3602 37.6257 26.7876V34.1726C37.6257 34.5963 37.8901 34.915 38.4225 35.1287C38.9513 35.3424 39.5996 35.4475 40.3638 35.4475C41.128 35.4475 41.7763 35.3424 42.3051 35.1287C42.8339 34.915 43.102 34.5999 43.102 34.1726V32.9882L45.5214 31.8437H45.6481Z" fill="#E1E1E1"/>
<path d="M49.3388 34.6181V26.3421C49.3388 25.2229 50.132 24.3464 51.7184 23.7198C52.5768 23.3902 53.5438 23.2236 54.6232 23.2236C55.7025 23.2236 56.6695 23.3902 57.5279 23.7198C59.1143 24.3464 59.9075 25.2229 59.9075 26.3421V34.6181C59.9075 35.7372 59.1143 36.6137 57.5279 37.2403C56.6695 37.5699 55.7025 37.7365 54.6232 37.7365C53.5438 37.7365 52.5768 37.5699 51.7184 37.2403C50.132 36.6137 49.3388 35.7372 49.3388 34.6181ZM51.885 34.1726C51.885 34.5963 52.1494 34.915 52.6818 35.1287C53.2142 35.3424 53.8589 35.4475 54.6232 35.4475C55.3874 35.4475 56.0357 35.3424 56.5645 35.1287C57.0933 34.915 57.3613 34.5999 57.3613 34.1726V26.7876C57.3613 26.3638 57.0969 26.0451 56.5645 25.8314C56.0321 25.6177 55.3874 25.5127 54.6232 25.5127C53.8589 25.5127 53.2106 25.6177 52.6818 25.8314C52.153 26.0451 51.885 26.3602 51.885 26.7876V34.1726Z" fill="#E1E1E1"/>
<path d="M63.5945 37.9936V26.3421C63.5945 25.2048 64.3877 24.3319 65.9741 23.7198C66.8325 23.3902 67.7995 23.2236 68.8789 23.2236C69.9582 23.2236 70.9252 23.3902 71.7836 23.7198C73.37 24.3319 74.1632 25.2048 74.1632 26.3421V36.8455L71.7438 36.9035H71.617V26.7839C71.617 26.3602 71.3526 26.0415 70.8202 25.8278C70.2914 25.6141 69.6431 25.509 68.8789 25.509C68.1146 25.509 67.4663 25.6141 66.9375 25.8278C66.4087 26.0415 66.1407 26.3566 66.1407 26.7839V36.8419L63.7213 37.9864H63.5945V37.9936Z" fill="#E1E1E1"/>
<path d="M77.8539 37.9936V26.3421C77.8539 25.2048 78.647 24.3319 80.2334 23.7198C81.0918 23.3902 82.0588 23.2236 83.1382 23.2236C84.2175 23.2236 85.1845 23.3902 86.0429 23.7198C87.6293 24.3319 88.4225 25.2048 88.4225 26.3421V36.8455L86.0031 37.99H85.8763V26.7839C85.8763 26.3602 85.6119 26.0415 85.0795 25.8278C84.5507 25.6141 83.9024 25.509 83.1382 25.509C82.374 25.509 81.7256 25.6141 81.1968 25.8278C80.668 26.0415 80.4 26.3566 80.4 26.7839V36.8419L77.9806 37.9864H77.8539V37.9936Z" fill="#E1E1E1"/>
<path d="M102.682 31.8437V34.6181C102.682 35.7372 101.889 36.6137 100.302 37.2403C99.4439 37.5699 98.4768 37.7365 97.3975 37.7365C96.3182 37.7365 95.3511 37.5699 94.4928 37.2403C92.9064 36.6137 92.1132 35.7372 92.1132 34.6181V26.3421C92.1132 25.2229 92.9064 24.3464 94.4928 23.7198C95.3511 23.3902 96.3182 23.2236 97.3975 23.2236C98.4768 23.2236 99.4439 23.3902 100.302 23.7198C101.889 24.3464 102.682 25.2229 102.682 26.3421V27.9719L94.6594 34.14C94.6594 34.5746 94.9238 34.9006 95.4562 35.1179C95.985 35.3352 96.6333 35.4438 97.3975 35.4438C98.1617 35.4438 98.81 35.3388 99.3388 35.1251C99.8676 34.9114 100.136 34.5963 100.136 34.1689V32.9846L102.555 31.8401H102.682V31.8437ZM94.6594 31.4888L100.136 27.2874V26.9578C100.136 26.4761 99.8712 26.1175 99.3388 25.8785C98.8064 25.6394 98.1617 25.5199 97.3975 25.5199C96.6333 25.5199 95.985 25.6249 95.4562 25.8386C94.9274 26.0523 94.6594 26.3674 94.6594 26.7948V31.4924V31.4888Z" fill="#E1E1E1"/>
<path d="M116.938 31.8437V34.6181C116.938 35.7372 116.144 36.6137 114.558 37.2403C113.7 37.5699 112.733 37.7365 111.653 37.7365C110.574 37.7365 109.607 37.5699 108.748 37.2403C107.162 36.6137 106.369 35.7372 106.369 34.6181V26.3421C106.369 25.2229 107.162 24.3464 108.748 23.7198C109.607 23.3902 110.574 23.2236 111.653 23.2236C112.733 23.2236 113.7 23.3902 114.558 23.7198C116.144 24.3464 116.938 25.2229 116.938 26.3421V27.9719L114.518 29.1164H114.391V26.7876C114.391 26.3638 114.127 26.0451 113.595 25.8314C113.062 25.6177 112.417 25.5127 111.653 25.5127C110.889 25.5127 110.241 25.6177 109.712 25.8314C109.183 26.0451 108.915 26.3602 108.915 26.7876V34.1726C108.915 34.5963 109.179 34.915 109.712 35.1287C110.244 35.3424 110.889 35.4475 111.653 35.4475C112.417 35.4475 113.066 35.3424 113.595 35.1287C114.123 34.915 114.391 34.5999 114.391 34.1726V32.9882L116.811 31.8437H116.938Z" fill="#E1E1E1"/>
<path d="M122.309 37.9934V25.7949H119.035V25.6681L120.067 23.4769H122.309V18.8916L124.728 17.7471H124.855V23.4769H128.129V23.6036L127.097 25.7949H124.855V36.8488L122.436 37.9934H122.309Z" fill="#E1E1E1"/>
<path d="M45.6445 14.0966V16.871C45.6445 17.9901 44.8513 18.8666 43.2649 19.4932C42.4065 19.8228 41.4395 19.9894 40.3602 19.9894C39.2809 19.9894 38.3138 19.8228 37.4554 19.4932C35.8691 18.8666 35.0759 17.9901 35.0759 16.871V8.595C35.0759 7.47584 35.8691 6.59934 37.4554 5.97276C38.3138 5.64317 39.2809 5.47656 40.3602 5.47656C41.4395 5.47656 42.4065 5.64317 43.2649 5.97276C44.8513 6.59934 45.6445 7.47584 45.6445 8.595V10.2248L43.2251 11.3694H43.0983V9.04049C43.0983 8.61673 42.8339 8.298 42.3015 8.08431C41.7727 7.87062 41.1244 7.76559 40.3602 7.76559C39.596 7.76559 38.9477 7.87062 38.4189 8.08431C37.8901 8.298 37.622 8.61311 37.622 9.04049V16.4255C37.622 16.8493 37.8864 17.168 38.4189 17.3817C38.9477 17.5954 39.596 17.7004 40.3602 17.7004C41.1244 17.7004 41.7727 17.5954 42.3015 17.3817C42.8303 17.168 43.0983 16.8529 43.0983 16.4255V15.2411L45.5177 14.0966H45.6445Z" fill="#888888"/>
<path d="M49.3352 16.871V8.595C49.3352 7.47584 50.1284 6.59934 51.7148 5.97276C52.5732 5.64317 53.5402 5.47656 54.6195 5.47656C55.6988 5.47656 56.6659 5.64317 57.5243 5.97276C59.1106 6.59934 59.9038 7.47584 59.9038 8.595V16.871C59.9038 17.9901 59.1106 18.8666 57.5243 19.4932C56.6659 19.8228 55.6988 19.9894 54.6195 19.9894C53.5402 19.9894 52.5732 19.8228 51.7148 19.4932C50.1284 18.8666 49.3352 17.9901 49.3352 16.871ZM51.8814 16.4255C51.8814 16.8493 52.1458 17.168 52.6782 17.3817C53.2106 17.5954 53.8553 17.7004 54.6195 17.7004C55.3837 17.7004 56.0321 17.5954 56.5608 17.3817C57.0896 17.168 57.3577 16.8529 57.3577 16.4255V9.04049C57.3577 8.61673 57.0933 8.298 56.5608 8.08431C56.0284 7.87062 55.3837 7.76559 54.6195 7.76559C53.8553 7.76559 53.207 7.87062 52.6782 8.08431C52.1494 8.298 51.8814 8.61311 51.8814 9.04049V16.4255Z" fill="#888888"/>
<path d="M63.5909 16.8707V8.59471C63.5909 7.45744 64.3841 6.58457 65.9705 5.97247C66.8288 5.64288 67.7959 5.47628 68.8752 5.47628C69.8857 5.47628 70.7984 5.62115 71.6133 5.9109V1.14451L74.0327 0H74.1595V16.8707C74.1595 18.008 73.3663 18.8808 71.7799 19.4929C70.9216 19.8225 69.9545 19.9891 68.8752 19.9891C67.7959 19.9891 66.8288 19.8225 65.9705 19.4929C64.3841 18.8664 63.5909 17.9899 63.5909 16.8707ZM66.1371 16.4252C66.1371 16.849 66.4015 17.1677 66.9339 17.3814C67.4627 17.5951 68.111 17.7001 68.8752 17.7001C69.6394 17.7001 70.2877 17.5951 70.8165 17.3814C71.3453 17.1677 71.6133 16.8526 71.6133 16.4252V9.0402C71.6133 8.61644 71.3489 8.29772 70.8165 8.08403C70.2877 7.87034 69.6394 7.7653 68.8752 7.7653C68.111 7.7653 67.4627 7.87034 66.9339 8.08403C66.4051 8.29772 66.1371 8.61282 66.1371 9.0402V16.4252Z" fill="#888888"/>
<path d="M89.0563 14.0966V16.871C89.0563 17.9901 88.2631 18.8666 86.6767 19.4932C85.8183 19.8228 84.8513 19.9894 83.772 19.9894C82.6927 19.9894 81.7256 19.8228 80.8672 19.4932C79.2809 18.8666 78.4877 17.9901 78.4877 16.871V8.595C78.4877 7.47584 79.2809 6.59934 80.8672 5.97276C81.7256 5.64317 82.6927 5.47656 83.772 5.47656C84.8513 5.47656 85.8183 5.64317 86.6767 5.97276C88.2631 6.59934 89.0563 7.47584 89.0563 8.595V10.2248L81.0338 16.3929C81.0338 16.8275 81.2982 17.1535 81.8307 17.3708C82.3595 17.5881 83.0078 17.6968 83.772 17.6968C84.5362 17.6968 85.1845 17.5917 85.7133 17.378C86.2421 17.1644 86.5101 16.8493 86.5101 16.4219V15.2375L88.9295 14.093H89.0563V14.0966ZM81.0338 13.7417L86.5101 9.54031V9.21072C86.5101 8.72901 86.2457 8.37044 85.7133 8.1314C85.1845 7.89235 84.5362 7.77283 83.772 7.77283C83.0078 7.77283 82.3595 7.87787 81.8307 8.09156C81.3019 8.30525 81.0338 8.62035 81.0338 9.04773V13.7453V13.7417Z" fill="#888888"/>
<path d="M77.8611 36.2656V36.559C77.8611 38.2323 74.1414 38.0693 74.1414 36.559V36.2656H71.6025V37.0045C71.6025 38.1381 72.3957 39.011 73.9784 39.6195C75.2859 40.1229 76.7093 40.1265 78.0277 39.6195C79.6104 39.011 80.4 38.1381 80.4 37.0045V36.2656H77.8611Z" fill="#81FE88"/>
</g>
<defs>
<clipPath id="clip0_637_2323">
<rect width="127.258" height="40" fill="white" transform="translate(0.87088)"/>
</clipPath>
</defs>
</svg>
