<svg width="30" height="33" viewBox="0 0 30 33" fill="none" xmlns="http://www.w3.org/2000/svg">
<path d="M14.6079 1.15542C14.6631 0.64969 15.337 0.64969 15.3922 1.15542L15.8545 5.39805C16.4514 10.8764 20.4181 15.1957 25.4492 15.8457L29.3455 16.3491C29.81 16.4092 29.81 17.1431 29.3455 17.2031L25.4492 17.7065C20.4181 18.3565 16.4514 22.6758 15.8545 28.1542L15.3922 32.3968C15.337 32.9026 14.6631 32.9026 14.6079 32.3968L14.1456 28.1542C13.5486 22.6758 9.58194 18.3565 4.55078 17.7065L0.654488 17.2031C0.190041 17.1431 0.190041 16.4092 0.654488 16.3491L4.55078 15.8457C9.58194 15.1957 13.5486 10.8764 14.1456 5.39805L14.6079 1.15542Z" fill="#0C0421"/>
</svg>
