<svg width="86" height="89" viewBox="0 0 86 89" fill="none" xmlns="http://www.w3.org/2000/svg">
<circle cx="32.5776" cy="32.7761" r="32" fill="#CAD4FA"/>
<path fill-rule="evenodd" clip-rule="evenodd" d="M11.3241 70.2327V74.7558C11.3241 77.2485 13.3527 79.2771 15.8472 79.2771H79.1543C81.6469 79.2771 83.6755 77.2485 83.6755 74.7558V70.2325H11.3238L11.3241 70.2327ZM79.1547 81.0241H15.8476C12.3906 81.0241 9.57764 78.2114 9.57764 74.7562L9.57793 69.3597C9.57793 68.8774 9.96908 68.4863 10.4511 68.4863H84.5495C85.0318 68.4863 85.4226 68.8774 85.4226 69.3597V74.7562C85.4226 78.2114 82.6113 81.0244 79.1547 81.0241Z" fill="#0C0421"/>
<path fill-rule="evenodd" clip-rule="evenodd" d="M24.3477 88.7758H24.3439L19.1424 88.7685C18.6418 88.7667 18.2126 88.5466 17.9359 88.1499C17.2155 87.1183 17.8412 85.2626 17.9721 84.9003C18.0541 84.6782 18.0904 84.4655 18.0904 84.2106V80.1496C18.0904 79.6673 18.4816 79.2765 18.9636 79.2765C19.4459 79.2765 19.837 79.6676 19.837 80.1499V84.2106C19.837 84.6729 19.7659 85.0841 19.6131 85.5006C19.3895 86.1118 19.3163 86.7233 19.3455 87.0216L24.1488 87.029C24.1706 86.6959 24.0632 86.0066 23.8411 85.3933C23.7685 85.1877 23.7738 84.9638 23.8576 84.762L25.9137 79.8148C26.0975 79.369 26.6087 79.1581 27.0544 79.3437C27.5001 79.5274 27.7113 80.0387 27.5258 80.4843L25.5954 85.1313C25.8264 85.8808 26.1521 87.3257 25.5624 88.1626C25.2842 88.559 24.8529 88.7759 24.347 88.7759L24.3477 88.7758Z" fill="#0C0421"/>
<path fill-rule="evenodd" clip-rule="evenodd" d="M70.6537 88.7758C70.1478 88.7758 69.7165 88.5593 69.438 88.1626C68.8486 87.3257 69.1743 85.8808 69.4053 85.1313L67.4731 80.4843C67.2893 80.0386 67.5003 79.5274 67.9442 79.3437C68.3899 79.1581 68.9012 79.369 69.0867 79.8151L71.1428 84.762C71.2266 84.9641 71.2319 85.188 71.1572 85.3936C70.9372 86.0065 70.828 86.6962 70.8516 87.0293L75.6531 87.0219C75.6841 86.7236 75.6112 86.1121 75.3874 85.5009C75.2346 85.0841 75.1617 84.6732 75.1617 84.2109L75.162 80.1499C75.162 79.6676 75.5528 79.2767 76.0351 79.2767C76.5192 79.2767 76.9085 79.6679 76.9085 80.1502V84.2109C76.9085 84.4658 76.9448 84.6785 77.0265 84.9006C77.1596 85.2626 77.7834 87.1186 77.0649 88.1502C76.7864 88.5469 76.359 88.767 75.8586 88.7687L70.6551 88.7761H70.6533L70.6537 88.7758Z" fill="#0C0421"/>
<path fill-rule="evenodd" clip-rule="evenodd" d="M29.4964 53.6304C29.0144 53.6304 28.623 53.2392 28.623 52.757L28.6233 36.1818C28.6233 35.6995 29.0144 35.3084 29.4964 35.3084C29.9787 35.3084 30.3698 35.6996 30.3698 36.1818V52.757C30.3698 53.239 29.9787 53.6304 29.4964 53.6304ZM13.6183 70.2327C13.136 70.2327 12.7449 69.8416 12.7449 69.3596V34.7428C12.7449 34.2608 13.136 33.8697 13.618 33.8697C14.1003 33.8697 14.4914 34.2608 14.4914 34.7428L14.4917 69.3596C14.4917 69.8416 14.1003 70.2327 13.6183 70.2327Z" fill="#0C0421"/>
<path fill-rule="evenodd" clip-rule="evenodd" d="M21.5565 26.1061C21.0745 26.1061 20.6831 25.715 20.6831 25.233L20.6834 21.5395C20.6834 21.0575 21.0746 20.6664 21.5565 20.6664C22.0388 20.6664 22.4299 21.0575 22.4299 21.5395V25.233C22.4299 25.7153 22.0388 26.1064 21.5565 26.1061Z" fill="#0C0421"/>
<path fill-rule="evenodd" clip-rule="evenodd" d="M24.7314 30.0783C24.8314 30.0783 24.9314 30.0839 25.0317 30.0984C26.1781 30.2476 27.0423 31.2338 27.0423 32.391V34.6069C27.0423 35.2494 27.5645 35.7716 28.2067 35.7716C28.8509 35.7716 29.373 35.2494 29.373 34.6072V27.4131C29.373 26.7709 28.8506 26.2488 28.2067 26.2488H14.9067C14.2645 26.2488 13.7424 26.7709 13.7424 27.4134V33.1683C13.7424 33.8105 14.2645 34.3326 14.9067 34.3326C15.5489 34.3326 16.073 33.8105 16.073 33.1683V32.3913C16.073 31.2341 16.9373 30.25 18.0834 30.0987C19.2297 29.9476 20.3193 30.6754 20.6178 31.7925C20.7326 32.2202 21.1181 32.5167 21.5565 32.5167C21.9969 32.5167 22.3825 32.2202 22.4972 31.7925C22.7701 30.7736 23.6999 30.0787 24.7315 30.0787L24.7314 30.0783ZM28.2067 37.5179C26.602 37.5179 25.2954 36.2117 25.2954 34.607V32.3907C25.2954 32.1031 25.0898 31.8668 24.804 31.8285C24.5185 31.7901 24.2583 31.9668 24.1836 32.2432C23.8671 33.4332 22.7863 34.2627 21.5565 34.2627C20.3284 34.2627 19.2477 33.4329 18.9311 32.2432C18.8565 31.9665 18.5963 31.7919 18.3107 31.8285C18.0252 31.8665 17.8196 32.1031 17.8196 32.3907V33.1677C17.8196 34.7742 16.5131 36.0789 14.9066 36.0789C13.3019 36.0789 11.9954 34.7745 11.9954 33.1677V27.4128C11.9954 25.8063 13.3016 24.5016 14.9063 24.5016H28.2063C29.8128 24.5016 31.119 25.8063 31.119 27.4128V34.607C31.119 36.2117 29.8125 37.5182 28.206 37.5179H28.2067Z" fill="#0C0421"/>
<path fill-rule="evenodd" clip-rule="evenodd" d="M31.2975 67.2732C31.1284 67.2732 30.9553 67.224 30.8042 67.1187C26.0703 63.8673 24.9673 59.8281 24.8782 57.0138C24.78 53.9789 25.8024 51.7247 25.8461 51.63C26.0009 51.2934 26.3519 51.0913 26.7195 51.1261C26.8959 51.1424 31.0714 51.5609 34.2502 54.914C34.5833 55.2651 34.5667 55.8164 34.2175 56.1494C33.8682 56.4807 33.3151 56.4659 32.9821 56.1167C30.9499 53.9697 28.3735 53.2164 27.1962 52.9727C26.5322 54.9284 25.1293 61.1021 31.7939 65.6799C32.1907 65.9527 32.2925 66.4967 32.0196 66.8952C31.8488 67.1407 31.5756 67.2737 31.2972 67.2737L31.2975 67.2732Z" fill="#0C0421"/>
<path fill-rule="evenodd" clip-rule="evenodd" d="M31.9289 69.9579C28.2465 69.9579 25.2005 69.0045 22.8465 67.1107C18.8438 63.8938 18.3671 59.1618 18.3488 58.9617C18.3143 58.5941 18.516 58.2448 18.8526 58.0903C18.9836 58.0283 22.1258 56.6112 26.0049 57.3062C26.4798 57.3917 26.7946 57.8448 26.709 58.3195C26.6255 58.7944 26.1704 59.1109 25.6957 59.0254C23.2869 58.5923 21.1889 59.1145 20.1957 59.4457C20.4633 60.7283 21.3382 63.6688 23.9582 65.7647C26.5509 67.8405 30.186 68.5995 34.7624 68.0243C35.2412 67.9641 35.6777 68.3045 35.7376 68.783C35.7978 69.2614 35.4592 69.698 34.9807 69.7582C33.92 69.8909 32.9028 69.9582 31.9297 69.9582L31.9289 69.9579Z" fill="#0C0421"/>
<path fill-rule="evenodd" clip-rule="evenodd" d="M37.1743 52.108C34.738 55.0355 30.3896 61.3618 31.6669 65.1512C32.2274 66.8141 33.8902 67.9167 36.6067 68.43C36.8053 68.4681 36.987 68.4864 37.1655 68.4864C37.3601 68.4864 37.5421 68.4681 37.7404 68.43C40.4587 67.9167 42.1197 66.8126 42.6802 65.1512C43.9593 61.3542 39.6109 55.0335 37.1746 52.108H37.1743ZM37.1873 70.2335H37.1599C36.8743 70.2317 36.5867 70.2043 36.2811 70.1462C32.8991 69.5075 30.7882 68.0137 30.0115 65.7087C27.9976 59.7334 36.1758 50.5729 36.5251 50.187C36.6906 50.0032 36.9272 49.8976 37.1746 49.8976C37.4204 49.8976 37.657 50.0032 37.8224 50.187C38.172 50.5725 46.3505 59.7338 44.336 65.7087C43.5594 68.014 41.4487 69.5075 38.0664 70.1462C37.7608 70.2043 37.4732 70.2317 37.1876 70.2335H37.1873Z" fill="#0C0421"/>
<path fill-rule="evenodd" clip-rule="evenodd" d="M43.0493 67.2732C42.7709 67.2732 42.498 67.1405 42.3287 66.8948C42.054 66.4963 42.1558 65.9523 42.5526 65.6794C45.8712 63.3997 47.6107 60.4667 47.7234 56.9588C47.7801 55.203 47.4034 53.7493 47.145 52.9723C45.9679 53.218 43.3951 53.9712 41.3647 56.1163C41.0337 56.4656 40.4803 56.4803 40.1293 56.149C39.78 55.816 39.7653 55.265 40.0966 54.9137C43.2754 51.5606 47.4526 51.142 47.6273 51.1257C47.9969 51.093 48.3459 51.293 48.5004 51.6296C48.5441 51.724 49.5665 53.9785 49.4701 57.0134C49.3792 59.8281 48.2765 63.8671 43.5423 67.1183C43.3913 67.2221 43.2184 67.2728 43.0494 67.2728L43.0493 67.2732Z" fill="#0C0421"/>
<path fill-rule="evenodd" clip-rule="evenodd" d="M42.4181 69.9579C41.4449 69.9579 40.4275 69.8906 39.367 69.7579C38.8886 69.6977 38.5503 69.2611 38.6101 68.7827C38.6703 68.3042 39.1069 67.9638 39.5854 68.0239C44.1615 68.5989 47.7963 67.8402 50.3895 65.7643C53.0078 63.6703 53.8828 60.7336 54.1521 59.4472C53.1532 59.118 51.0461 58.5956 48.652 59.0251C48.1774 59.1106 47.724 58.7941 47.6385 58.3192C47.5532 57.8443 47.8677 57.3915 48.3426 57.3059C52.2235 56.6109 55.3639 58.028 55.4948 58.09C55.8314 58.2446 56.0335 58.5938 55.9987 58.9614C55.9807 59.1614 55.5037 63.8938 51.5028 67.1104C49.1468 69.0042 46.101 69.9579 42.4181 69.9576L42.4181 69.9579Z" fill="#0C0421"/>
<path fill-rule="evenodd" clip-rule="evenodd" d="M74.6478 53.7074C74.1658 53.7074 73.7744 53.3163 73.7744 52.8343V40.6406C73.7744 39.4235 73.1741 38.2755 72.1679 37.5713C71.8697 37.3621 71.5803 37.1727 71.2982 36.9872C69.9428 36.0993 68.662 35.2607 68.3088 33.3264C68.2215 32.8514 68.5363 32.3966 69.0112 32.311C69.4861 32.2237 69.941 32.5385 70.0265 33.0116C70.2377 34.1597 70.8979 34.6382 72.2555 35.5261C72.5484 35.719 72.8505 35.9155 73.1705 36.1394C74.6425 37.171 75.5213 38.8538 75.5213 40.6406L75.5216 52.8342C75.5216 53.3165 75.1304 53.7077 74.6481 53.7077L74.6478 53.7074ZM52.6256 59.0437C52.1433 59.0437 51.7522 58.6526 51.7522 58.1706V40.6402C51.7522 38.8535 52.631 37.1706 54.1047 36.139C54.423 35.9151 54.725 35.7187 55.018 35.5257C56.3755 34.6378 57.0357 34.1593 57.2469 33.0113C57.3325 32.5381 57.7873 32.2233 58.2623 32.3107C58.7372 32.3962 59.0519 32.8511 58.9646 33.326C58.6118 35.2599 57.3307 36.0989 55.9752 36.9868C55.6953 37.1724 55.4038 37.3617 55.1056 37.5709C54.0997 38.275 53.4991 39.4231 53.4991 40.6403L53.4994 58.1707C53.4994 58.6527 53.108 59.0441 52.626 59.0438L52.6256 59.0437Z" fill="#0C0421"/>
<path fill-rule="evenodd" clip-rule="evenodd" d="M74.6478 45.683H52.6256C52.1433 45.683 51.7522 45.2919 51.7522 44.8099C51.7522 44.3276 52.1433 43.9365 52.6256 43.9365H74.6478C75.1301 43.9365 75.5209 44.3276 75.5209 44.8099C75.5212 45.2919 75.1297 45.683 74.6478 45.683Z" fill="#0C0421"/>
<path fill-rule="evenodd" clip-rule="evenodd" d="M69.1675 34.0429H58.1051C57.6231 34.0429 57.2317 33.6517 57.2317 33.1695L57.232 28.5901C57.232 28.1078 57.6231 27.7166 58.1051 27.7166C58.5874 27.7166 58.9785 28.1078 58.9785 28.5901V32.2963H68.2943V28.5901C68.2943 28.1078 68.6854 27.7166 69.1674 27.7166C69.6494 27.7166 70.0405 28.1078 70.0405 28.5901V33.1695C70.0405 33.6518 69.6494 34.0429 69.1674 34.0429H69.1675Z" fill="#0C0421"/>
<path fill-rule="evenodd" clip-rule="evenodd" d="M58.0598 27.7165H69.2128V24.8563H58.0598V27.7165ZM69.3533 29.4631H57.9216C57.0336 29.4631 56.313 28.741 56.313 27.8548L56.3133 24.7183C56.3133 23.8303 57.0336 23.11 57.9216 23.11H69.3533C70.2394 23.11 70.9597 23.8306 70.9597 24.7186V27.8551C70.9597 28.741 70.2391 29.4634 69.3533 29.4634L69.3533 29.4631Z" fill="#0C0421"/>
<path fill-rule="evenodd" clip-rule="evenodd" d="M66.517 24.8563C66.0346 24.8563 65.6435 24.4652 65.6435 23.9832V18.241C65.6435 17.1348 64.7429 16.2342 63.6364 16.2342C62.5303 16.2342 61.6297 17.1348 61.6297 18.241V23.9832C61.6297 24.4652 61.2385 24.8566 60.7562 24.8566C60.2742 24.8566 59.8828 24.4655 59.8828 23.9832L59.8831 18.241C59.8831 16.1705 61.5678 14.4876 63.6365 14.4876C65.7053 14.4876 67.3899 16.1705 67.3899 18.241V23.9832C67.3899 24.4652 66.9988 24.8566 66.5168 24.8563H66.517Z" fill="#0C0421"/>
<path fill-rule="evenodd" clip-rule="evenodd" d="M80.0622 61.9712C79.5802 61.9712 79.1888 61.5801 79.1888 61.0978C79.1888 60.614 79.58 60.2247 80.062 60.2247C80.7189 60.2247 81.2537 59.6899 81.2537 59.0311C81.2537 58.3742 80.7189 57.8394 80.062 57.8394H60.3702C59.7133 57.8394 59.1785 58.3742 59.1785 59.0311C59.1785 59.6896 59.7133 60.2247 60.3702 60.2247H62.4372C62.9192 60.2247 63.3103 60.6141 63.3103 61.0981C63.3103 61.5804 62.9192 61.9715 62.4372 61.9715H60.3705C58.7493 61.9715 57.4319 60.6526 57.4319 59.0314C57.4319 57.4122 58.7493 56.093 60.3702 56.093H80.062C81.6832 56.093 83.0021 57.4122 83.0021 59.0314C83.0024 60.6526 81.6829 61.9715 80.062 61.9715L80.0622 61.9712Z" fill="#0C0421"/>
<path fill-rule="evenodd" clip-rule="evenodd" d="M62.4414 70.2327C59.6812 70.2327 57.4358 67.9876 57.4358 65.2274C57.4358 62.469 59.6809 60.2238 62.4411 60.2238H80.0659C80.5482 60.2238 80.9391 60.6132 80.9391 61.0973C80.9393 61.5796 80.5479 61.9707 80.0656 61.9707H62.4408C60.6431 61.9707 59.1821 63.4318 59.1821 65.2277C59.1821 67.0253 60.6432 68.4863 62.4408 68.4863C62.9231 68.4863 63.3139 68.8775 63.3139 69.3598C63.3139 69.8418 62.9228 70.2329 62.4408 70.2329L62.4414 70.2327Z" fill="#0C0421"/>
<path fill-rule="evenodd" clip-rule="evenodd" d="M80.0623 70.2327C79.5802 70.2327 79.1888 69.8416 79.1888 69.3596C79.1888 68.8773 79.58 68.4862 80.062 68.4862C80.7189 68.4862 81.2537 67.9514 81.2537 67.2945C81.2537 66.6358 80.7189 66.1009 80.062 66.1009H63.5563C63.0743 66.1009 62.6829 65.7098 62.6829 65.2278C62.6829 64.7455 63.074 64.3544 63.556 64.3544H80.0617C81.6829 64.3544 83.0018 65.6736 83.0018 67.2948C83.0021 68.914 81.6826 70.2332 80.0617 70.2332L80.0623 70.2327Z" fill="#0C0421"/>
<path fill-rule="evenodd" clip-rule="evenodd" d="M80.0624 66.1012C79.5804 66.1012 79.189 65.7101 79.189 65.2281C79.189 64.7458 79.5801 64.3547 80.0621 64.3547C80.719 64.3547 81.2538 63.8199 81.2538 63.1629C81.2538 62.506 80.719 61.9712 80.0621 61.9712C79.5801 61.9712 79.189 61.5801 79.189 61.0978C79.189 60.614 79.5801 60.2247 80.0621 60.2247C81.6834 60.2247 83.0004 61.5418 83.0004 63.163C83.0007 64.784 81.6831 66.1014 80.0621 66.1014L80.0624 66.1012Z" fill="#0C0421"/>
<path fill-rule="evenodd" clip-rule="evenodd" d="M80.0622 57.8397C79.5802 57.8397 79.1888 57.4486 79.1888 56.9663C79.1888 56.484 79.58 56.0929 80.062 56.0929C80.7189 56.0929 81.2537 55.5581 81.2537 54.9012C81.2537 54.2424 80.7189 53.7076 80.062 53.7076H60.3702C59.7133 53.7076 59.1785 54.2424 59.1785 54.9012C59.1785 55.5578 59.7133 56.0929 60.3702 56.0929H62.4372C62.9192 56.0929 63.3103 56.484 63.3103 56.9663C63.3103 57.4483 62.9192 57.8397 62.4372 57.8397H60.3705C58.7493 57.8397 57.4319 56.5205 57.4319 54.9014C57.4319 53.2801 58.7493 51.9612 60.3702 51.9612H80.062C81.6832 51.9612 83.0021 53.2804 83.0021 54.9017C83.0024 56.5208 81.6829 57.84 80.062 57.84L80.0622 57.8397Z" fill="#0C0421"/>
<path d="M22.237 9.10076C27.7628 14.9979 27.4282 19.0191 25.3111 21.0112C24.3179 21.9458 22.9323 22.413 21.5577 22.413C20.1831 22.413 18.7975 21.9457 17.8043 21.0112C14.0928 17.5192 18.3813 11.7514 20.9217 9.05092C21.2857 8.6639 21.9046 8.69045 22.237 9.10048V9.10076ZM24.117 19.7418C25.5445 18.3987 25.5987 15.5096 21.5577 10.9411C17.5167 15.5096 17.571 18.3987 18.9984 19.7418C19.6529 20.3577 20.5998 20.6657 21.5577 20.6657C22.5156 20.6657 23.4625 20.3577 24.117 19.7418Z" fill="#0C0421"/>
</svg>
