<svg width="588" height="38" viewBox="0 0 588 38" fill="none" xmlns="http://www.w3.org/2000/svg">
<g clip-path="url(#clip0_111_2435)">
<path d="M17.28 8.65607H3.03003V10.0461H17.28V8.65607Z" fill="#0C0421"/>
<path d="M2.36 11.2161C3.38725 11.2161 4.22 10.3833 4.22 9.35607C4.22 8.32882 3.38725 7.49607 2.36 7.49607C1.33275 7.49607 0.5 8.32882 0.5 9.35607C0.5 10.3833 1.33275 11.2161 2.36 11.2161Z" fill="#0C0421"/>
<path d="M17.5 8.76607L5.14996 1.63607L4.45996 2.84607L16.8 9.97607L17.5 8.76607Z" fill="#0C0421"/>
<path d="M4.21999 3.76607C5.24724 3.76607 6.07999 2.93332 6.07999 1.90607C6.07999 0.878817 5.24724 0.0460663 4.21999 0.0460663C3.19274 0.0460663 2.35999 0.878817 2.35999 1.90607C2.35999 2.93332 3.19274 3.76607 4.21999 3.76607Z" fill="#0C0421"/>
<path d="M17.5 9.93607L16.8 8.72607L4.45996 15.8561L5.14996 17.0661L17.5 9.93607Z" fill="#0C0421"/>
<path d="M4.21999 18.6561C5.24724 18.6561 6.07999 17.8233 6.07999 16.7961C6.07999 15.7688 5.24724 14.9361 4.21999 14.9361C3.19274 14.9361 2.35999 15.7688 2.35999 16.7961C2.35999 17.8233 3.19274 18.6561 4.21999 18.6561Z" fill="#0C0421"/>
<path d="M337.88 36.1961C326.2 36.1961 315.21 31.6461 306.95 23.3861L305.28 21.7161C296.77 13.2061 285.46 8.52607 273.43 8.52607H16.47V9.83607H273.43C285.11 9.83607 296.1 14.3861 304.36 22.6461L306.03 24.3161C314.54 32.8261 325.85 37.5061 337.88 37.5061H587.5V36.1961H337.88Z" fill="#0C0421"/>
</g>
<defs>
<clipPath id="clip0_111_2435">
<rect width="587" height="37.46" fill="white" transform="translate(0.5 0.0460663)"/>
</clipPath>
</defs>
</svg>
